<svg width="190" height="185" viewBox="0 0 190 185" fill="none" xmlns="http://www.w3.org/2000/svg">
<g clip-path="url(#clip0)">
<path d="M120.62 41.606H69.423C68.2564 41.6074 67.1379 42.0703 66.3129 42.8932C65.4879 43.7162 65.0238 44.8318 65.0224 45.9956V159.496L64.4357 159.675L51.8763 163.511C51.2811 163.693 50.6382 163.631 50.0887 163.339C49.5392 163.048 49.1281 162.551 48.9456 161.958L11.5872 40.2335C11.4053 39.6398 11.4673 38.9983 11.7594 38.4501C12.0515 37.9019 12.5499 37.4919 13.145 37.31L32.499 31.3987L88.6068 14.2675L107.961 8.35612C108.255 8.2657 108.565 8.2341 108.872 8.26314C109.178 8.29217 109.476 8.38127 109.749 8.52534C110.021 8.6694 110.262 8.86559 110.458 9.1027C110.654 9.3398 110.801 9.61315 110.892 9.90712L120.441 41.0207L120.62 41.606Z" fill="#F2F2F2"/>
<path d="M131.792 41.0216L120.283 3.52263C120.092 2.89782 119.779 2.31678 119.362 1.8127C118.945 1.30862 118.433 0.89138 117.855 0.584827C117.276 0.278273 116.643 0.0884088 115.991 0.0260912C115.339 -0.0362263 114.681 0.0302238 114.055 0.221638L86.8442 8.52972L30.7394 25.6638L3.52887 33.9749C2.26481 34.362 1.2064 35.2337 0.585954 36.3985C-0.0344923 37.5633 -0.166284 38.926 0.219513 40.1876L39.5552 168.344C39.8686 169.362 40.501 170.254 41.3595 170.887C42.2181 171.521 43.2576 171.863 44.3256 171.864C44.8198 171.865 45.3113 171.791 45.7835 171.645L64.4363 165.95L65.0231 165.769V165.157L64.4363 165.336L45.6105 171.086C44.4947 171.425 43.2896 171.309 42.2595 170.763C41.2294 170.217 40.4584 169.286 40.1156 168.174L0.782913 40.015C0.613075 39.4639 0.553883 38.8848 0.608722 38.3109C0.663561 37.737 0.83135 37.1795 1.10249 36.6703C1.37364 36.1612 1.74281 35.7104 2.18885 35.3438C2.6349 34.9772 3.14906 34.7019 3.7019 34.5338L30.9124 26.2228L87.0174 9.09159L114.228 0.780588C114.647 0.652937 115.083 0.587851 115.522 0.587443C116.462 0.589551 117.378 0.892129 118.134 1.45086C118.89 2.00959 119.447 2.79511 119.723 3.69236L131.179 41.0217L131.361 41.6069H131.971L131.792 41.0216Z" fill="#3F3D56"/>
<path d="M35.9915 37.4057C35.4261 37.4053 34.8757 37.2242 34.421 36.8888C33.9663 36.5535 33.6313 36.0817 33.4652 35.5425L29.6864 23.2306C29.5849 22.8999 29.5496 22.5525 29.5827 22.2082C29.6158 21.8639 29.7166 21.5294 29.8792 21.224C30.0419 20.9185 30.2633 20.648 30.5308 20.4279C30.7983 20.2078 31.1066 20.0425 31.4382 19.9413L83.0543 4.17851C83.7239 3.97469 84.4471 4.04421 85.0654 4.37179C85.6837 4.69937 86.1464 5.25826 86.352 5.92578L90.1308 18.2379C90.335 18.9058 90.2652 19.6272 89.9368 20.2439C89.6085 20.8606 89.0483 21.3222 88.3791 21.5274L36.7629 37.2901C36.513 37.3666 36.253 37.4056 35.9915 37.4057Z" fill="#FF655B"/>
<path d="M55.7862 13.1556C59.0267 13.1556 61.6537 10.5352 61.6537 7.30277C61.6537 4.07035 59.0267 1.44995 55.7862 1.44995C52.5457 1.44995 49.9187 4.07035 49.9187 7.30277C49.9187 10.5352 52.5457 13.1556 55.7862 13.1556Z" fill="#FF655B"/>
<path d="M55.7862 11.0088C57.8382 11.0088 59.5016 9.34949 59.5016 7.30262C59.5016 5.25575 57.8382 3.59644 55.7862 3.59644C53.7342 3.59644 52.0707 5.25575 52.0707 7.30262C52.0707 9.34949 53.7342 11.0088 55.7862 11.0088Z" fill="white"/>
<path d="M176.798 170.368H77.6376C76.9765 170.367 76.3426 170.105 75.8751 169.638C75.4076 169.172 75.1447 168.54 75.1439 167.88V49.3607C75.1447 48.7013 75.4076 48.069 75.8751 47.6027C76.3426 47.1363 76.9765 46.874 77.6376 46.8733H176.798C177.459 46.8741 178.093 47.1364 178.561 47.6027C179.028 48.069 179.291 48.7013 179.292 49.3607V167.88C179.291 168.54 179.028 169.172 178.561 169.638C178.093 170.105 177.459 170.367 176.798 170.368Z" fill="#E6E6E6"/>
<path d="M131.178 41.0208H69.423C68.1009 41.0226 66.8334 41.5474 65.8985 42.4799C64.9636 43.4125 64.4375 44.6768 64.4357 45.9956V165.335L65.0224 165.156V45.9956C65.0238 44.8319 65.4879 43.7162 66.3129 42.8933C67.1379 42.0704 68.2564 41.6074 69.423 41.606H131.36L131.178 41.0208ZM185.013 41.0208H69.423C68.1009 41.0226 66.8334 41.5474 65.8985 42.4799C64.9636 43.4125 64.4375 44.6768 64.4357 45.9956V180.025C64.4375 181.344 64.9636 182.608 65.8985 183.541C66.8334 184.474 68.1009 184.998 69.423 185H185.013C186.335 184.998 187.602 184.474 188.537 183.541C189.472 182.608 189.998 181.344 190 180.025V45.9956C189.998 44.6768 189.472 43.4125 188.537 42.4799C187.602 41.5474 186.335 41.0226 185.013 41.0208ZM189.413 180.025C189.412 181.189 188.948 182.305 188.123 183.128C187.298 183.951 186.179 184.413 185.013 184.415H69.423C68.2564 184.413 67.1379 183.951 66.3129 183.128C65.4879 182.305 65.0238 181.189 65.0224 180.025V45.9956C65.0238 44.8319 65.4879 43.7162 66.3129 42.8933C67.1379 42.0704 68.2564 41.6074 69.423 41.606H185.013C186.179 41.6074 187.298 42.0704 188.123 42.8933C188.948 43.7162 189.412 44.8319 189.413 45.9956V180.025Z" fill="#3F3D56"/>
<path d="M154.208 53.8967H100.227C99.5274 53.8959 98.8562 53.6181 98.3612 53.1244C97.8663 52.6306 97.5878 51.9612 97.587 51.2629V38.3867C97.5878 37.6884 97.8663 37.019 98.3613 36.5252C98.8563 36.0315 99.5274 35.7537 100.227 35.7529H154.208C154.908 35.7537 155.579 36.0315 156.074 36.5252C156.569 37.019 156.848 37.6884 156.849 38.3867V51.2629C156.848 51.9612 156.569 52.6306 156.075 53.1244C155.58 53.6181 154.908 53.8959 154.208 53.8967Z" fill="#FF655B"/>
<path d="M127.218 36.6309C130.458 36.6309 133.085 34.0105 133.085 30.7781C133.085 27.5457 130.458 24.9253 127.218 24.9253C123.977 24.9253 121.35 27.5457 121.35 30.7781C121.35 34.0105 123.977 36.6309 127.218 36.6309Z" fill="#FF655B"/>
<path d="M127.218 34.3432C129.192 34.3432 130.792 32.7471 130.792 30.7783C130.792 28.8094 129.192 27.2134 127.218 27.2134C125.244 27.2134 123.644 28.8094 123.644 30.7783C123.644 32.7471 125.244 34.3432 127.218 34.3432Z" fill="white"/>
</g>
<defs>
<clipPath id="clip0">
<rect width="190" height="185" fill="white"/>
</clipPath>
</defs>
</svg>
