<svg width="280" height="153" viewBox="0 0 280 153" fill="none" xmlns="http://www.w3.org/2000/svg">
<g clip-path="url(#clip0)">
<path d="M21.5872 123.117L19.6103 116.499C16.105 115.239 12.5186 114.147 8.86836 113.229L8.61874 116.304L7.60658 112.916C3.07966 111.819 0 111.335 0 111.335C0 111.335 4.15991 124.761 12.885 135.026L23.0517 136.541L15.1535 137.508C16.2515 138.629 17.4315 139.69 18.6865 140.686C31.3791 150.685 45.5162 155.273 50.2627 150.933C55.0092 146.593 48.5676 134.968 35.875 124.969C31.9402 121.869 26.9972 119.381 22.0493 117.424L21.5872 123.117Z" fill="#E6E6E6"/>
<path d="M40.3891 115.931L42.7272 109.398C40.4944 106.781 38.0894 104.273 35.5237 101.885L33.4369 104.409L34.634 101.064C31.427 98.1389 29.085 96.3741 29.085 96.3741C29.085 96.3741 24.4693 109.692 25.6871 122.307L33.4671 128.065L26.1173 125.427C26.3744 126.868 26.7382 128.295 27.2063 129.697C31.9819 143.825 41.2899 153.955 47.9963 152.322C54.7027 150.689 56.268 137.912 51.4924 123.784C50.0119 119.404 47.2955 115.106 44.2523 111.259L40.3891 115.931Z" fill="#E6E6E6"/>
<path d="M258.125 130.006L262.557 127.642C262.775 125.547 262.853 123.443 262.792 121.341L260.498 121.826L262.767 120.615C262.661 118.016 262.397 116.301 262.397 116.301C262.397 116.301 253.435 121.177 247.694 127.818L248.625 133.465L246.338 129.507C245.74 130.309 245.202 131.142 244.727 132.001C239.974 140.674 239.459 149.023 243.576 150.648C247.693 152.273 254.884 146.559 259.636 137.886C261.11 135.197 261.934 132.101 262.372 129.108L258.125 130.006Z" fill="#E6E6E6"/>
<path d="M267.135 138.448L272.369 138.368C273.831 136.67 275.179 134.904 276.407 133.077L274.148 132.486L276.828 132.445C278.319 130.174 279.138 128.59 279.138 128.59C279.138 128.59 268.497 128.832 259.538 131.998L256.895 137.24L257.347 132.849C256.347 133.273 255.38 133.75 254.45 134.277C245.099 139.617 239.574 146.538 242.109 149.735C244.643 152.932 254.278 151.196 263.629 145.856C266.528 144.201 269.12 141.912 271.316 139.542L267.135 138.448Z" fill="#E6E6E6"/>
<path d="M279.576 152.303H0.637451V152.901H279.576V152.303Z" fill="#3F3D56"/>
<path d="M79.8261 16.4832L79.1037 16.1756L77.1465 19.4865L77.8689 19.7941L79.8261 16.4832Z" fill="white"/>
<path d="M75.6633 99.3343L75.424 99.358L75.5747 100.455L75.814 100.431L75.6633 99.3343Z" fill="#3F3D56"/>
<path d="M77.0921 109.014L77.0162 108.82L75.7814 109.167L75.8573 109.362L77.0921 109.014Z" fill="white"/>
<path d="M75.9728 103.328L75.7323 103.34L75.8104 104.443L76.0509 104.43L75.9728 103.328Z" fill="white"/>
<path d="M74.8484 97.2841L74.6079 97.2963L74.686 98.3985L74.9265 98.3863L74.8484 97.2841Z" fill="white"/>
<path d="M92.034 101.792L91.9437 101.603L90.7374 102.016L90.8276 102.206L92.034 101.792Z" fill="#FF6584"/>
<path d="M77.8118 101.47L77.5791 101.417L77.2424 102.484L77.4751 102.536L77.8118 101.47Z" fill="#FF6584"/>
<path d="M90.7481 18.8242H89.9886V22.3054H90.7481V18.8242Z" fill="#3F3D56"/>
<path d="M90.2924 27.2049H89.5329V30.6861H90.2924V27.2049Z" fill="white"/>
<path d="M89.7171 99.9616L89.5569 99.8257L88.6924 100.559L88.8525 100.695L89.7171 99.9616Z" fill="white"/>
<path d="M91.9905 111.077L91.8304 110.941L90.9659 111.675L91.126 111.811L91.9905 111.077Z" fill="white"/>
<path d="M90.1767 106.47L89.958 106.42L89.6416 107.423L89.8603 107.472L90.1767 106.47Z" fill="#FF6584"/>
<path d="M90.7417 102.679L90.5816 102.543L89.717 103.277L89.8771 103.413L90.7417 102.679Z" fill="#FF6584"/>
<path d="M87.2643 102.554C87.4591 102.389 87.5685 102.165 87.5685 101.931C87.5685 101.697 87.4591 101.473 87.2643 101.308C87.0695 101.142 86.8053 101.049 86.5298 101.049C86.2543 101.049 85.9901 101.142 85.7953 101.308L52.6505 129.439C52.4557 129.604 52.3463 129.828 52.3463 130.062C52.3463 130.296 52.4557 130.52 52.6505 130.685C52.8453 130.851 53.1095 130.944 53.385 130.944C53.6605 130.944 53.9247 130.851 54.1195 130.685L87.051 102.735" fill="#3F3D56"/>
<path d="M90.6521 99.004C88.2379 96.9573 85.1002 95.6382 81.719 95.2484C78.3378 94.8586 74.8992 95.4195 71.9292 96.8453C68.9592 98.2712 66.6212 100.483 65.2728 103.144C63.9245 105.804 63.64 108.766 64.4629 111.577C65.2857 114.388 67.1707 116.892 69.8294 118.707C72.4882 120.523 75.7743 121.549 79.1852 121.629C82.5962 121.709 85.9442 120.839 88.7171 119.151C91.49 117.463 93.5353 115.051 94.54 112.283C95.3757 109.979 95.4553 107.525 94.7703 105.185C94.0852 102.845 92.6614 100.708 90.6521 99.004ZM77.8667 113.426C76.7918 113.172 75.8124 112.687 75.0239 112.018C74.8645 111.882 74.7169 111.74 74.5752 111.594C73.6013 110.576 73.0885 109.295 73.1293 107.984C73.1702 106.673 73.762 105.418 74.7979 104.444C75.8338 103.471 77.2455 102.844 78.7782 102.677C80.3109 102.51 81.8636 102.813 83.156 103.532C84.4484 104.251 85.3952 105.339 85.8257 106.598C86.2561 107.858 86.1417 109.207 85.5032 110.401C84.8647 111.596 83.744 112.557 82.3437 113.112C80.9433 113.666 79.3554 113.778 77.8667 113.426Z" fill="#FF655B"/>
<path d="M55.2618 25.3127C55.2618 24.5283 54.8947 23.7761 54.2412 23.2215C53.5877 22.6669 52.7014 22.3553 51.7773 22.3553C50.8531 22.3553 49.9668 22.6669 49.3133 23.2215C48.6598 23.7761 48.2927 24.5283 48.2927 25.3127V149.96C48.2927 150.348 48.3829 150.733 48.558 151.092C48.7331 151.451 48.9897 151.777 49.3133 152.051C49.6369 152.326 50.021 152.544 50.4438 152.692C50.8665 152.841 51.3197 152.918 51.7773 152.918C52.2349 152.918 52.688 152.841 53.1107 152.692C53.5335 152.544 53.9176 152.326 54.2412 152.051C54.5648 151.777 54.8214 151.451 54.9965 151.092C55.1717 150.733 55.2618 150.348 55.2618 149.96V26.1717" fill="#3F3D56"/>
<path d="M99.7103 24.2078C93.7269 14.6024 83.8092 7.18712 71.8276 3.36066C59.846 -0.465792 46.6288 -0.43895 34.6689 3.43613C22.709 7.3112 12.8331 14.7667 6.904 24.3963C0.974855 34.0259 -0.597728 45.1641 2.48286 55.7101C5.56345 66.2561 13.0843 75.4809 23.6268 81.6445C34.1693 87.8082 47.0048 90.4847 59.7124 89.1693C72.42 87.8538 84.1212 82.6373 92.6091 74.5036C101.097 66.37 105.785 55.8814 105.789 45.0161C105.792 37.7631 103.705 30.6194 99.7103 24.2078ZM64.0552 61.0765C59.8981 63.0681 55.084 63.8422 50.3566 63.2793C45.6293 62.7164 41.252 60.8477 37.9011 57.9622C34.5503 55.0766 32.4124 51.3347 31.8179 47.3147C31.2233 43.2947 32.2053 39.2204 34.6119 35.7214C37.0186 32.2225 40.716 29.4936 45.1327 27.9566C49.5495 26.4195 54.4398 26.1598 59.0478 27.2176C63.6559 28.2754 67.7252 30.5919 70.627 33.8089C73.5287 37.026 75.1014 40.9646 75.1019 45.0161C75.1134 48.2856 74.0954 51.4984 72.1533 54.322C70.2111 57.1456 67.4154 59.4775 64.0552 61.0765H64.0552Z" fill="#FF655B"/>
<path opacity="0.2" d="M53.2258 86.6604C39.6092 86.6602 26.5273 82.1621 16.7501 74.1184C6.97294 66.0748 1.26818 55.1172 0.843814 43.566C0.825668 44.0472 0.816391 44.5302 0.815981 45.0151C0.814295 50.8574 2.16867 56.6429 4.80176 62.0409C7.43484 67.439 11.2951 72.3439 16.1619 76.4756C21.0288 80.6072 26.807 83.8847 33.1665 86.1208C39.526 88.3569 46.3422 89.5079 53.2258 89.5079C60.1094 89.5079 66.9256 88.3569 73.2851 86.1208C79.6446 83.8847 85.4228 80.6072 90.2897 76.4756C95.1565 72.3439 99.0167 67.439 101.65 62.0409C104.283 56.6429 105.637 50.8574 105.636 45.0151C105.636 44.5296 105.626 44.046 105.608 43.5643C105.184 55.1158 99.4795 66.0738 89.7022 74.1178C79.925 82.1618 66.8427 86.6602 53.2258 86.6604Z" fill="black"/>
<path opacity="0.2" d="M53.3776 22.8198C48.2055 22.82 43.1497 24.1219 38.8495 26.5608C34.5492 28.9998 31.1976 32.4662 29.2185 36.5218C27.2394 40.5773 26.7216 45.0399 27.7307 49.3452C28.7398 53.6506 31.2304 57.6052 34.8876 60.7092C38.5448 63.8132 43.2043 65.927 48.2769 66.7834C53.3496 67.6399 58.6075 67.2005 63.3859 65.5207C68.1643 63.841 72.2485 60.9964 75.1221 57.3466C77.9957 53.6968 79.5297 49.4058 79.53 45.0161C79.5222 39.1313 76.7644 33.4893 71.8616 29.3281C66.9587 25.1669 60.3112 22.8263 53.3776 22.8198ZM64.0552 61.0765C59.8981 63.0681 55.0839 63.8422 50.3566 63.2793C45.6293 62.7164 41.252 60.8477 37.9011 57.9622C34.5502 55.0766 32.4123 51.3346 31.8178 47.3147C31.2233 43.2947 32.2052 39.2204 34.6119 35.7214C37.0185 32.2225 40.7159 29.4936 45.1327 27.9566C49.5495 26.4195 54.4397 26.1598 59.0478 27.2176C63.6558 28.2754 67.7252 30.5918 70.6269 33.8089C73.5287 37.026 75.1013 40.9646 75.1018 45.0161C75.1133 48.2856 74.0954 51.4984 72.1532 54.322C70.2111 57.1456 67.4154 59.4775 64.0552 61.0765Z" fill="black"/>
<path d="M99.711 23.6734V31.0728C99.7115 31.6131 99.5213 32.1411 99.1651 32.5889C98.8089 33.0366 98.3029 33.3836 97.7123 33.5851C97.1217 33.7867 96.4735 33.8335 95.8513 33.7197C95.229 33.6058 94.6612 33.3364 94.2209 32.9462V33.7895C94.2209 34.6419 93.8219 35.4595 93.1116 36.0623C92.4014 36.6651 91.4381 37.0038 90.4337 37.0038C89.4293 37.0038 88.466 36.6651 87.7557 36.0623C87.0455 35.4595 86.6465 34.6419 86.6465 33.7895V33.0868C86.1884 33.4365 85.6206 33.666 85.012 33.7474C84.4034 33.8289 83.7799 33.7588 83.2173 33.5457C82.6546 33.3326 82.1768 32.9855 81.8418 32.5466C81.5067 32.1077 81.3288 31.5958 81.3296 31.0729L81.1777 23.2079V21.3939C81.1771 21.1035 81.0408 20.8252 80.7988 20.62C80.5566 20.4149 80.2285 20.2996 79.8864 20.2996C79.5443 20.2996 79.2162 20.4149 78.9741 20.62C78.732 20.8252 78.5957 21.1035 78.5951 21.3939V23.2079L78.4432 29.7835C78.4432 30.5016 78.1071 31.1903 77.5089 31.6981C76.9106 32.2059 76.0992 32.4911 75.2531 32.4911C74.407 32.4911 73.5956 32.2059 72.9973 31.6981C72.399 31.1903 72.0629 30.5016 72.0629 29.7835L71.6725 23.2079V19.8466C71.6725 19.3703 71.4495 18.9135 71.0527 18.5767C70.6558 18.2398 70.1176 18.0506 69.5564 18.0506C68.9951 18.0506 68.4569 18.2398 68.06 18.5767C67.6632 18.9135 67.4402 19.3703 67.4402 19.8466V23.2079L67.2017 29.7835C67.2022 30.3466 66.9957 30.8958 66.6109 31.3546C66.2262 31.8133 65.6823 32.1588 65.0552 32.3427C64.4282 32.5266 63.7491 32.5399 63.1127 32.3807C62.4763 32.2215 61.9143 31.8977 61.505 31.4545C61.0005 32.0019 60.2667 32.3632 59.4563 32.4631C58.6459 32.563 57.8214 32.3938 57.1542 31.9908V33.7895C57.1542 34.6419 56.7552 35.4595 56.045 36.0623C55.3348 36.6651 54.3715 37.0038 53.367 37.0038C52.3626 37.0038 51.3993 36.6651 50.6891 36.0623C49.9789 35.4595 49.5799 34.6419 49.5799 33.7895V28.2363C49.5801 28.8557 49.3301 29.4565 48.8715 29.9383C48.4128 30.4201 47.7733 30.7538 47.0598 30.8837C46.3462 31.0136 45.6017 30.9319 44.9506 30.6521C44.2995 30.3723 43.7811 29.9115 43.4821 29.3464V33.7895C43.4821 34.6419 43.0831 35.4595 42.3729 36.0623C41.6626 36.6651 40.6993 37.0038 39.6949 37.0038C38.6905 37.0038 37.7272 36.6651 37.017 36.0623C36.3067 35.4595 35.9077 34.6419 35.9077 33.7895V23.2079H35.8865V33.7895C35.8865 34.6419 35.4874 35.4595 34.7772 36.0623C34.067 36.6651 33.1037 37.0038 32.0993 37.0038C31.0948 37.0038 30.1316 36.6651 29.4213 36.0623C28.7111 35.4595 28.3121 34.6419 28.3121 33.7895V29.3838C28.0048 29.9417 27.4825 30.394 26.8315 30.6659C26.1805 30.9378 25.4396 31.0131 24.7314 30.8793C24.0231 30.7456 23.3898 30.4108 22.936 29.9302C22.4822 29.4497 22.2352 28.8522 22.2356 28.2363V23.2079H21.9105V32.2423C21.9105 33.0948 21.5115 33.9123 20.8013 34.5151C20.091 35.1179 19.1277 35.4566 18.1233 35.4566C17.1189 35.4566 16.1556 35.1179 15.4454 34.5151C14.7351 33.9123 14.3361 33.0948 14.3361 32.2423V28.2363C14.3366 28.5921 14.2543 28.9445 14.0942 29.2733C13.9341 29.6021 13.6992 29.9009 13.4029 30.1526C13.1066 30.4043 12.7548 30.604 12.3675 30.7402C11.9803 30.8765 11.5652 30.9466 11.146 30.9466C10.7268 30.9466 10.3117 30.8765 9.92442 30.7402C9.53716 30.604 9.18534 30.4043 8.88907 30.1526C8.59279 29.9009 8.35787 29.6021 8.19774 29.2733C8.0376 28.9445 7.9554 28.5921 7.95581 28.2363V22.2757C12.6346 15.3866 19.4029 9.68742 27.5566 5.77111C35.7104 1.8548 44.9517 -0.13555 54.3191 0.00713583C63.6864 0.149822 72.8376 2.42033 80.8206 6.58244C88.8035 10.7446 95.3265 16.6462 99.711 23.6734Z" fill="#E6E6E6"/>
<path opacity="0.2" d="M32.0993 35.4566C31.602 35.4566 31.1095 35.3735 30.65 35.212C30.1905 35.0504 29.773 34.8137 29.4213 34.5152C29.0696 34.2167 28.7906 33.8624 28.6003 33.4724C28.41 33.0824 28.3121 32.6644 28.3121 32.2423V33.9184C28.3121 34.7709 28.7111 35.5885 29.4214 36.1913C30.1316 36.7941 31.0949 37.1327 32.0993 37.1327C33.1037 37.1327 34.067 36.7941 34.7773 36.1913C35.4875 35.5885 35.8865 34.7709 35.8865 33.9184V32.2423C35.8865 32.6644 35.7886 33.0824 35.5983 33.4724C35.408 33.8624 35.129 34.2167 34.7773 34.5152C34.4257 34.8137 34.0081 35.0505 33.5486 35.212C33.0891 35.3735 32.5967 35.4566 32.0993 35.4566Z" fill="black"/>
<path opacity="0.2" d="M39.6949 35.4566C39.1976 35.4566 38.7051 35.3735 38.2456 35.212C37.7861 35.0504 37.3686 34.8137 37.0169 34.5152C36.6652 34.2167 36.3863 33.8624 36.196 33.4724C36.0057 33.0824 35.9077 32.6644 35.9078 32.2423V33.9184C35.9078 34.7709 36.3068 35.5885 37.017 36.1913C37.7273 36.7941 38.6905 37.1327 39.695 37.1327C40.6994 37.1327 41.6627 36.7941 42.3729 36.1913C43.0831 35.5885 43.4821 34.7709 43.4821 33.9184V32.2423C43.4822 32.6644 43.3842 33.0824 43.1939 33.4724C43.0036 33.8624 42.7247 34.2167 42.373 34.5152C42.0213 34.8137 41.6038 35.0505 41.1443 35.212C40.6848 35.3735 40.1923 35.4566 39.6949 35.4566Z" fill="black"/>
<path opacity="0.2" d="M28.3122 27.8366C28.0049 28.3945 27.4826 28.8468 26.8316 29.1187C26.1806 29.3906 25.4397 29.4659 24.7314 29.3321C24.0232 29.1984 23.3898 28.8636 22.9361 28.383C22.4823 27.9025 22.2352 27.305 22.2357 26.6891V28.3653C22.2352 28.9811 22.4823 29.5786 22.9361 30.0592C23.3898 30.5397 24.0232 30.8745 24.7314 31.0083C25.4397 31.142 26.1806 31.0667 26.8316 30.7948C27.4826 30.5229 28.0049 30.0707 28.3122 29.5128V27.8366Z" fill="black"/>
<path opacity="0.2" d="M35.9078 21.6607H35.8865V23.3369H35.9078V21.6607Z" fill="black"/>
<path opacity="0.2" d="M14.3362 26.6891C14.3354 27.4068 13.9989 28.0948 13.4007 28.602C12.8025 29.1092 11.9916 29.394 11.146 29.394C10.3005 29.394 9.48955 29.1092 8.89137 28.602C8.29319 28.0948 7.95671 27.4068 7.95587 26.6891V28.3653C7.95671 29.0829 8.29319 29.7709 8.89137 30.2781C9.48955 30.7853 10.3005 31.0702 11.146 31.0702C11.9916 31.0702 12.8025 30.7853 13.4007 30.2781C13.9989 29.7709 14.3354 29.0829 14.3362 28.3653V26.6891Z" fill="black"/>
<path opacity="0.2" d="M22.2357 21.6607H21.9106V23.3369H22.2357V21.6607Z" fill="black"/>
<path opacity="0.2" d="M18.1234 33.9094C17.626 33.9094 17.1335 33.8263 16.674 33.6648C16.2145 33.5033 15.797 33.2665 15.4453 32.968C15.0936 32.6695 14.8147 32.3152 14.6244 31.9252C14.4341 31.5352 14.3361 31.1172 14.3362 30.6951V32.3712C14.3362 33.2237 14.7352 34.0413 15.4454 34.6441C16.1557 35.2469 17.1189 35.5855 18.1234 35.5855C19.1278 35.5855 20.0911 35.2469 20.8013 34.6441C21.5115 34.0413 21.9106 33.2237 21.9106 32.3712V30.6951C21.9106 31.1172 21.8127 31.5352 21.6223 31.9252C21.432 32.3152 21.1531 32.6695 20.8014 32.968C20.4497 33.2665 20.0322 33.5033 19.5727 33.6648C19.1132 33.8263 18.6207 33.9094 18.1234 33.9094Z" fill="black"/>
<path opacity="0.2" d="M53.3671 35.4566C52.8697 35.4566 52.3772 35.3735 51.9177 35.212C51.4582 35.0504 51.0407 34.8137 50.689 34.5152C50.3374 34.2167 50.0584 33.8624 49.8681 33.4724C49.6778 33.0824 49.5799 32.6644 49.5799 32.2423V33.9184C49.5799 34.7709 49.9789 35.5885 50.6891 36.1913C51.3994 36.7941 52.3627 37.1327 53.3671 37.1327C54.3715 37.1327 55.3348 36.7941 56.045 36.1913C56.7553 35.5885 57.1543 34.7709 57.1543 33.9184V32.2423C57.1543 32.6644 57.0564 33.0824 56.8661 33.4724C56.6757 33.8624 56.3968 34.2167 56.0451 34.5152C55.6934 34.8137 55.2759 35.0505 54.8164 35.212C54.3569 35.3735 53.8644 35.4566 53.3671 35.4566Z" fill="black"/>
<path opacity="0.2" d="M81.1777 19.8467C81.1777 19.556 81.0416 19.2772 80.7995 19.0717C80.5573 18.8662 80.2289 18.7507 79.8864 18.7507C79.5439 18.7507 79.2155 18.8662 78.9733 19.0717C78.7312 19.2772 78.5952 19.556 78.5952 19.8467V21.5228C78.5949 21.3787 78.6281 21.236 78.6929 21.1029C78.7576 20.9697 78.8527 20.8487 78.9726 20.7467C79.0926 20.6448 79.235 20.5639 79.3918 20.5087C79.5486 20.4536 79.7167 20.4252 79.8864 20.4252C80.0562 20.4252 80.2242 20.4536 80.381 20.5087C80.5378 20.5639 80.6802 20.6448 80.8002 20.7467C80.9201 20.8487 81.0152 20.9697 81.0799 21.1029C81.1447 21.236 81.1779 21.3787 81.1777 21.5228V19.8467Z" fill="black"/>
<path opacity="0.2" d="M49.5799 26.6891C49.5802 27.3085 49.3301 27.9093 48.8715 28.3911C48.4129 28.8729 47.7734 29.2066 47.0598 29.3365C46.3462 29.4664 45.6017 29.3847 44.9506 29.1049C44.2995 28.8251 43.7812 28.3643 43.4821 27.7992V29.4754C43.7812 30.0404 44.2995 30.5013 44.9506 30.781C45.6017 31.0608 46.3462 31.1426 47.0598 31.0127C47.7734 30.8828 48.4129 30.549 48.8715 30.0672C49.3301 29.5854 49.5802 28.9847 49.5799 28.3653V26.6891Z" fill="black"/>
<path opacity="0.2" d="M75.2531 30.9439C74.8341 30.944 74.4193 30.874 74.0322 30.7379C73.6451 30.6019 73.2934 30.4024 72.9972 30.151C72.7009 29.8996 72.4659 29.6011 72.3056 29.2725C72.1453 28.944 72.0629 28.5919 72.0629 28.2363L71.6725 21.6608V23.3369L72.0629 29.9125C72.0629 30.6306 72.399 31.3193 72.9973 31.827C73.5956 32.3348 74.407 32.6201 75.2531 32.6201C76.0992 32.6201 76.9106 32.3348 77.5089 31.827C78.1071 31.3193 78.4432 30.6306 78.4432 29.9125L78.5951 23.3369V21.6608L78.4432 28.2363C78.4433 28.5919 78.3608 28.944 78.2005 29.2725C78.0402 29.6011 77.8052 29.8996 77.509 30.151C77.2127 30.4024 76.861 30.6019 76.474 30.7379C76.0869 30.874 75.672 30.944 75.2531 30.9439Z" fill="black"/>
<path opacity="0.2" d="M96.5209 32.2333C96.091 32.2334 95.6655 32.1595 95.2702 32.0161C94.8749 31.8728 94.5179 31.6628 94.2209 31.3991V32.2423C94.2209 33.0948 93.8219 33.9123 93.1117 34.5151C92.4014 35.1179 91.4381 35.4566 90.4337 35.4566C89.4293 35.4566 88.466 35.1179 87.7558 34.5151C87.0455 33.9123 86.6465 33.0948 86.6465 32.2423V31.5396C86.1884 31.8893 85.6206 32.1188 85.012 32.2003C84.4034 32.2817 83.7799 32.2116 83.2173 31.9985C82.6546 31.7854 82.1768 31.4383 81.8418 30.9994C81.5067 30.5606 81.3288 30.0486 81.3296 29.5257L81.1777 21.6608V23.3369L81.3296 31.2018C81.3288 31.7248 81.5067 32.2367 81.8418 32.6756C82.1768 33.1145 82.6546 33.4615 83.2173 33.6746C83.7799 33.8878 84.4034 33.9578 85.012 33.8764C85.6207 33.795 86.1884 33.5655 86.6465 33.2157V33.9184C86.6465 34.7709 87.0455 35.5885 87.7558 36.1913C88.466 36.7941 89.4293 37.1327 90.4337 37.1327C91.4381 37.1327 92.4014 36.7941 93.1117 36.1913C93.8219 35.5885 94.2209 34.7709 94.2209 33.9184V33.0752C94.6612 33.4654 95.229 33.7348 95.8513 33.8486C96.4735 33.9625 97.1217 33.9156 97.7123 33.7141C98.3029 33.5126 98.8089 33.1656 99.1652 32.7178C99.5214 32.2701 99.7115 31.7421 99.711 31.2018V29.5257C99.7111 29.8812 99.6286 30.2334 99.4683 30.5619C99.308 30.8904 99.073 31.1889 98.7768 31.4403C98.4805 31.6917 98.1288 31.8912 97.7417 32.0272C97.3547 32.1633 96.9398 32.2333 96.5209 32.2333Z" fill="black"/>
<path opacity="0.2" d="M64.0116 30.9439C63.5285 30.9439 63.0517 30.8506 62.6174 30.671C62.1831 30.4914 61.8027 30.2302 61.505 29.9073C61.0005 30.4547 60.2667 30.816 59.4563 30.9159C58.646 31.0158 57.8214 30.8466 57.1542 30.4436V32.1198C57.8214 32.5228 58.646 32.6919 59.4563 32.592C60.2667 32.4921 61.0005 32.1308 61.505 31.5834C61.9143 32.0266 62.4763 32.3504 63.1127 32.5096C63.7491 32.6689 64.4282 32.6556 65.0553 32.4716C65.6823 32.2877 66.2262 31.9423 66.6109 31.4835C66.9957 31.0248 67.2022 30.4756 67.2017 29.9125L67.4402 23.3369V21.6607L67.2017 28.2363C67.2018 28.5919 67.1193 28.944 66.959 29.2725C66.7987 29.601 66.5637 29.8995 66.2675 30.151C65.9712 30.4024 65.6195 30.6018 65.2325 30.7379C64.8454 30.874 64.4305 30.944 64.0116 30.9439Z" fill="black"/>
<path opacity="0.2" d="M71.6725 18.2995C71.6725 17.8231 71.4496 17.3663 71.0527 17.0295C70.6559 16.6927 70.1176 16.5034 69.5564 16.5034C68.9951 16.5034 68.4569 16.6927 68.0601 17.0295C67.6632 17.3663 67.4402 17.8231 67.4402 18.2995V19.9756C67.4402 19.4993 67.6632 19.0424 68.0601 18.7056C68.4569 18.3688 68.9951 18.1796 69.5564 18.1796C70.1176 18.1796 70.6559 18.3688 71.0527 18.7056C71.4496 19.0424 71.6725 19.4993 71.6725 19.9756V18.2995Z" fill="black"/>
<path d="M36.2875 18.6308H35.528V22.112H36.2875V18.6308Z" fill="#3F3D56"/>
<path d="M50.6433 16.7613H49.8837V20.2425H50.6433V16.7613Z" fill="#3F3D56"/>
<path d="M32.4138 30.4282H31.6542V33.9094H32.4138V30.4282Z" fill="#3F3D56"/>
<path d="M63.4393 24.3453L62.8147 23.9785L60.4809 26.8412L61.1056 27.208L63.4393 24.3453Z" fill="#3F3D56"/>
<path d="M23.2176 18.8452L22.7463 19.3508L25.9629 21.5108L26.4342 21.0053L23.2176 18.8452Z" fill="#3F3D56"/>
<path d="M67.8799 5.82298L67.4086 6.32854L70.6252 8.48858L71.0965 7.98302L67.8799 5.82298Z" fill="#3F3D56"/>
<path d="M14.8625 22.4553L14.3912 22.9609L17.6077 25.1209L18.079 24.6154L14.8625 22.4553Z" fill="#3F3D56"/>
<path d="M39.0979 10.4436H38.3383V13.9248H39.0979V10.4436Z" fill="white"/>
<path d="M18.2859 28.3653H17.5263V31.8465H18.2859V28.3653Z" fill="white"/>
<path d="M53.8334 5.41518H53.0739V8.89637H53.8334V5.41518Z" fill="white"/>
<path d="M58.0548 17.6064L57.3759 17.3173L55.5366 20.4288L56.2155 20.7179L58.0548 17.6064Z" fill="white"/>
<path d="M54.5609 30.4997L53.882 30.2106L52.0426 33.3221L52.7215 33.6112L54.5609 30.4997Z" fill="white"/>
<path d="M44.1197 23.4237L43.6158 23.9061L46.6849 26.2155L47.1888 25.7331L44.1197 23.4237Z" fill="white"/>
<path d="M29.0803 8.33854L28.5764 8.82092L31.6456 11.1303L32.1495 10.6479L29.0803 8.33854Z" fill="white"/>
<path d="M79.0595 14.1405L78.5556 14.6229L81.6248 16.9323L82.1287 16.4499L79.0595 14.1405Z" fill="white"/>
<path d="M60.6781 2.79443L60.1742 3.27681L63.2434 5.58621L63.7472 5.10383L60.6781 2.79443Z" fill="white"/>
<path d="M44.8706 16.7613H44.111V20.2425H44.8706V16.7613Z" fill="#FF6584"/>
<path d="M87.7216 18.9597L87.0224 18.7077L85.4195 21.9121L86.1187 22.164L87.7216 18.9597Z" fill="#FF6584"/>
<path d="M29.6664 22.3775L29.0086 22.6998L31.0595 25.7146L31.7173 25.3922L29.6664 22.3775Z" fill="#FF6584"/>
<path d="M73.1134 19.9277L72.4556 20.25L74.5064 23.2648L75.1642 22.9425L73.1134 19.9277Z" fill="#FF6584"/>
<path d="M46.0734 7.16357L45.4156 7.4859L47.4664 10.5007L48.1242 10.1784L46.0734 7.16357Z" fill="#FF6584"/>
<path d="M78.2784 6.51869L77.6206 6.84102L79.6714 9.85582L80.3292 9.53349L78.2784 6.51869Z" fill="#FF6584"/>
<path d="M36.5025 3.68215L35.8447 4.00449L37.8955 7.01929L38.5533 6.69695L36.5025 3.68215Z" fill="#FF6584"/>
<path d="M63.8597 9.7989H63.1001V13.2801H63.8597V9.7989Z" fill="#FF6584"/>
<path d="M20.1089 15.6009H19.3493V19.0821H20.1089V15.6009Z" fill="#FF6584"/>
<path opacity="0.2" d="M69.2295 117.133C66.3593 114.697 64.719 111.408 64.6557 107.963C64.5925 104.519 66.1114 101.188 68.8908 98.6776C68.7674 98.7757 68.6455 98.8759 68.525 98.978C67.0733 100.209 65.9215 101.671 65.1356 103.28C64.3496 104.889 63.9449 106.614 63.9445 108.355C63.944 110.097 64.3479 111.822 65.1331 113.431C65.9182 115.041 67.0693 116.503 68.5204 117.734C69.9716 118.966 71.6944 119.943 73.5905 120.609C75.4866 121.276 77.5188 121.619 79.571 121.618C81.6233 121.618 83.6553 121.274 85.5511 120.607C87.4468 119.94 89.1692 118.963 90.6197 117.731C90.7403 117.628 90.8585 117.525 90.9742 117.42C88.016 119.779 84.092 121.068 80.0333 121.015C75.9746 120.961 72.0998 119.569 69.2295 117.133Z" fill="black"/>
<path opacity="0.2" d="M85.7487 103.166C84.5332 102.133 82.9843 101.43 81.2979 101.145C79.6115 100.86 77.8634 101.006 76.2746 101.564C74.6859 102.122 73.3279 103.068 72.3724 104.281C71.417 105.495 70.907 106.921 70.907 108.381C70.907 109.84 71.417 111.267 72.3724 112.48C73.3279 113.694 74.6859 114.639 76.2746 115.198C77.8634 115.756 79.6115 115.902 81.2979 115.617C82.9843 115.332 84.5332 114.628 85.7487 113.596C87.375 112.211 88.2883 110.336 88.2883 108.381C88.2883 106.426 87.375 104.55 85.7487 103.166ZM84.1841 112.018C82.9691 113.048 81.3217 113.627 79.604 113.627C77.8863 113.627 76.2389 113.048 75.0239 112.018C74.8645 111.882 74.7169 111.739 74.5751 111.594C73.7863 110.769 73.2963 109.767 73.1645 108.71C73.0326 107.653 73.2646 106.587 73.8323 105.64C74.4 104.692 75.2791 103.905 76.3632 103.373C77.4472 102.841 78.6897 102.588 79.9402 102.643C81.1907 102.698 82.3955 103.059 83.4088 103.684C84.4221 104.308 85.2004 105.168 85.6495 106.16C86.0986 107.152 86.1992 108.234 85.9391 109.273C85.679 110.313 85.0694 111.266 84.1841 112.018Z" fill="black"/>
<path d="M94.8529 112.018L93.0152 113.577C92.8812 113.691 92.71 113.769 92.5237 113.799C92.3374 113.83 92.1445 113.813 91.97 113.749C91.7955 113.686 91.6472 113.58 91.5443 113.445C91.4414 113.31 91.3886 113.151 91.3927 112.99L91.1833 113.168C90.9716 113.348 90.6844 113.449 90.385 113.449C90.0856 113.449 89.7984 113.348 89.5867 113.168C89.375 112.988 89.2561 112.745 89.2561 112.49C89.2561 112.236 89.375 111.993 89.5867 111.813L89.7612 111.665C89.5778 111.656 89.4012 111.603 89.2526 111.512C89.1041 111.42 88.9901 111.294 88.9244 111.148C88.8588 111.002 88.8442 110.844 88.8826 110.691C88.921 110.539 89.0106 110.399 89.1407 110.289L91.062 108.604L91.5125 108.222C91.5847 108.16 91.6252 108.077 91.6252 107.991C91.6252 107.904 91.5847 107.821 91.5125 107.76C91.4403 107.698 91.3424 107.664 91.2403 107.664C91.1382 107.664 91.0403 107.698 90.9681 107.76L90.5176 108.142L88.8525 109.501C88.6741 109.652 88.4322 109.737 88.18 109.737C87.9278 109.737 87.6859 109.652 87.5076 109.501C87.3292 109.349 87.229 109.144 87.229 108.93C87.229 108.716 87.3292 108.511 87.5076 108.359L89.0584 106.904L89.8932 106.195C90.0106 106.094 90.0764 105.958 90.076 105.817C90.0756 105.675 90.0092 105.54 89.8912 105.439C89.7733 105.339 89.6134 105.283 89.4466 105.283C89.2797 105.282 89.1195 105.338 89.0011 105.438L88.1663 106.146L86.4829 107.49C85.7278 107.11 84.9215 106.809 84.0813 106.593C83.9419 106.475 83.8495 106.322 83.8168 106.157L83.3701 106.537C83.1584 106.716 82.8712 106.817 82.5718 106.817C82.2724 106.817 81.9853 106.716 81.7735 106.537C81.5618 106.357 81.4429 106.113 81.4429 105.859C81.4429 105.605 81.5618 105.361 81.7735 105.182L83.1527 104.011C82.9989 104.142 82.797 104.224 82.5807 104.243C82.3643 104.263 82.1467 104.218 81.964 104.118C81.7813 104.018 81.6447 103.867 81.5769 103.692C81.5092 103.517 81.5144 103.327 81.5917 103.154L80.4882 104.091C80.2764 104.27 79.9893 104.371 79.6899 104.371C79.3905 104.371 79.1033 104.27 78.8916 104.091C78.6799 103.911 78.5609 103.667 78.5609 103.413C78.5609 103.159 78.6799 102.915 78.8916 102.736L81.5196 100.505L81.5151 100.501L78.8871 102.732C78.6754 102.911 78.3882 103.012 78.0888 103.012C77.7894 103.012 77.5022 102.911 77.2905 102.732C77.0788 102.552 76.9599 102.308 76.9599 102.054C76.9599 101.8 77.0788 101.556 77.2905 101.377L78.3847 100.448C78.1814 100.511 77.959 100.513 77.7542 100.453C77.5494 100.394 77.3746 100.278 77.2585 100.123C77.1424 99.9678 77.0921 99.7839 77.1158 99.6014C77.1395 99.4189 77.2358 99.2488 77.3888 99.119L78.6377 98.0591L78.5691 98.001L76.3254 99.9053C76.1137 100.085 75.8265 100.186 75.5271 100.186C75.2277 100.186 74.9405 100.085 74.7288 99.9053C74.5171 99.7256 74.3981 99.4819 74.3981 99.2278C74.3981 98.9736 74.5171 98.7299 74.7288 98.5502L75.7237 97.7058C75.5454 97.8572 75.3035 97.9422 75.0513 97.9422C74.799 97.9422 74.5572 97.8572 74.3788 97.7058C74.2005 97.5545 74.1003 97.3492 74.1003 97.1351C74.1003 96.921 74.2005 96.7157 74.3788 96.5644L75.8592 95.3079C78.5563 94.6928 81.3985 94.7024 84.0898 95.3356C86.7812 95.9688 89.2234 97.2026 91.1625 98.9085C93.1016 100.614 94.4667 102.73 95.1157 105.036C95.7647 107.341 95.674 109.752 94.8529 112.018Z" fill="#E6E6E6"/>
<path opacity="0.2" d="M77.6748 102.406C77.5699 102.317 77.4867 102.211 77.43 102.095C77.3733 101.979 77.3441 101.854 77.3441 101.728C77.3441 101.602 77.3733 101.478 77.43 101.361C77.4867 101.245 77.5699 101.14 77.6748 101.051L77.2585 101.404C77.0468 101.584 76.9278 101.827 76.9278 102.081C76.9278 102.336 77.0468 102.579 77.2585 102.759C77.4702 102.939 77.7574 103.04 78.0568 103.04C78.3562 103.04 78.6434 102.939 78.8551 102.759L79.2713 102.406C79.1665 102.495 79.0421 102.565 78.9051 102.613C78.7681 102.662 78.6213 102.686 78.4731 102.686C78.3248 102.686 78.178 102.662 78.041 102.613C77.904 102.565 77.7796 102.495 77.6748 102.406Z" fill="black"/>
<path opacity="0.2" d="M79.2758 103.765C79.171 103.676 79.0878 103.57 79.0311 103.454C78.9743 103.337 78.9451 103.213 78.9451 103.087C78.9451 102.961 78.9743 102.837 79.0311 102.72C79.0878 102.604 79.171 102.498 79.2758 102.409L78.8596 102.763C78.7547 102.852 78.6716 102.957 78.6148 103.074C78.5581 103.19 78.5289 103.314 78.5289 103.44C78.5289 103.566 78.5581 103.691 78.6148 103.807C78.6716 103.923 78.7547 104.029 78.8596 104.118C78.9644 104.207 79.0889 104.277 79.2258 104.326C79.3628 104.374 79.5096 104.398 79.6579 104.398C79.8061 104.398 79.9529 104.374 80.0899 104.326C80.2269 104.277 80.3513 104.207 80.4562 104.118L80.8724 103.765C80.7676 103.853 80.6431 103.924 80.5062 103.972C80.3692 104.02 80.2224 104.045 80.0741 104.045C79.9259 104.045 79.7791 104.02 79.6421 103.972C79.5051 103.924 79.3807 103.853 79.2758 103.765Z" fill="black"/>
<path opacity="0.2" d="M78.7689 100.122C78.5656 100.185 78.3432 100.186 78.1384 100.127C77.9337 100.068 77.7588 99.9515 77.6427 99.7966C77.5267 99.6417 77.4763 99.4578 77.5 99.2753C77.5237 99.0928 77.62 98.9227 77.7731 98.7929L77.3568 99.1462C77.2037 99.276 77.1074 99.4461 77.0837 99.6286C77.06 99.8111 77.1104 99.995 77.2265 100.15C77.3425 100.305 77.5174 100.421 77.7222 100.481C77.9269 100.54 78.1493 100.538 78.3526 100.475L78.7689 100.122Z" fill="black"/>
<path opacity="0.2" d="M81.8993 100.175L81.483 100.528L81.4875 100.532L81.9038 100.179L81.8993 100.175Z" fill="black"/>
<path opacity="0.2" d="M76.108 97.3797C76.0197 97.4547 75.9148 97.5141 75.7995 97.5547C75.6841 97.5952 75.5604 97.6161 75.4355 97.6161C75.3106 97.6161 75.187 97.5952 75.0716 97.5547C74.9562 97.5141 74.8514 97.4547 74.7631 97.3797C74.6748 97.3048 74.6047 97.2158 74.5569 97.1179C74.5091 97.0199 74.4845 96.915 74.4845 96.809C74.4845 96.703 74.5091 96.598 74.5569 96.5001C74.6047 96.4022 74.6748 96.3132 74.7631 96.2383L74.3468 96.5916C74.1685 96.7429 74.0683 96.9482 74.0683 97.1623C74.0683 97.3764 74.1685 97.5817 74.3468 97.733C74.5251 97.8844 74.767 97.9694 75.0193 97.9694C75.2715 97.9694 75.5133 97.8844 75.6917 97.733L76.108 97.3797Z" fill="black"/>
<path opacity="0.2" d="M78.9534 97.6749L78.5371 98.0282L78.6056 98.0863L79.0219 97.733L78.9534 97.6749Z" fill="black"/>
<path opacity="0.2" d="M75.1131 99.5792C75.0082 99.4902 74.925 99.3846 74.8683 99.2683C74.8116 99.1521 74.7823 99.0275 74.7823 98.9017C74.7823 98.7758 74.8116 98.6512 74.8683 98.535C74.925 98.4187 75.0082 98.3131 75.1131 98.2241L74.6968 98.5774C74.5919 98.6664 74.5088 98.772 74.452 98.8883C74.3953 99.0045 74.3661 99.1291 74.3661 99.255C74.3661 99.3808 74.3953 99.5054 74.452 99.6216C74.5088 99.7379 74.5919 99.8435 74.6968 99.9325C74.8016 100.021 74.9261 100.092 75.063 100.14C75.2 100.188 75.3468 100.213 75.4951 100.213C75.6433 100.213 75.7901 100.188 75.9271 100.14C76.0641 100.092 76.1885 100.021 76.2934 99.9325L76.7096 99.5792C76.6048 99.6682 76.4803 99.7388 76.3434 99.7869C76.2064 99.8351 76.0596 99.8599 75.9113 99.8599C75.7631 99.8599 75.6163 99.8351 75.4793 99.7869C75.3423 99.7388 75.2179 99.6682 75.1131 99.5792Z" fill="black"/>
<path opacity="0.2" d="M82.1578 106.21C82.0529 106.122 81.9697 106.016 81.913 105.9C81.8563 105.783 81.827 105.659 81.827 105.533C81.827 105.407 81.8563 105.283 81.913 105.166C81.9697 105.05 82.0529 104.944 82.1578 104.855L81.7415 105.209C81.6367 105.298 81.5535 105.403 81.4968 105.52C81.44 105.636 81.4108 105.76 81.4108 105.886C81.4108 106.012 81.44 106.137 81.4968 106.253C81.5535 106.369 81.6367 106.475 81.7415 106.564C81.8463 106.653 81.9708 106.723 82.1078 106.772C82.2447 106.82 82.3915 106.844 82.5398 106.844C82.688 106.844 82.8348 106.82 82.9718 106.772C83.1088 106.723 83.2332 106.653 83.3381 106.564L83.7543 106.21C83.6495 106.299 83.5251 106.37 83.3881 106.418C83.2511 106.466 83.1043 106.491 82.9561 106.491C82.8078 106.491 82.661 106.466 82.524 106.418C82.387 106.37 82.2626 106.299 82.1578 106.21Z" fill="black"/>
<path opacity="0.2" d="M91.8967 107.896C91.9689 107.834 92.0095 107.751 92.0095 107.664C92.0095 107.578 91.9689 107.495 91.8967 107.433C91.8245 107.372 91.7266 107.338 91.6245 107.338C91.5224 107.338 91.4245 107.372 91.3524 107.433L90.9361 107.787C91.0083 107.726 91.1062 107.691 91.2083 107.691C91.3103 107.691 91.4083 107.726 91.4804 107.787C91.5526 107.848 91.5932 107.931 91.5932 108.018C91.5932 108.104 91.5526 108.188 91.4804 108.249L91.8967 107.896Z" fill="black"/>
<path opacity="0.2" d="M83.5369 103.685C83.3831 103.815 83.1812 103.897 82.9649 103.917C82.7486 103.936 82.5309 103.892 82.3482 103.792C82.1655 103.692 82.0289 103.541 81.9612 103.366C81.8934 103.19 81.8986 103.001 81.9759 102.828L81.5596 103.181C81.4823 103.354 81.4771 103.544 81.5449 103.719C81.6126 103.895 81.7493 104.045 81.9319 104.145C82.1146 104.246 82.3323 104.29 82.5486 104.27C82.765 104.251 82.9669 104.169 83.1206 104.038L83.5369 103.685Z" fill="black"/>
<path opacity="0.2" d="M87.8918 109.175C87.8035 109.1 87.7334 109.011 87.6856 108.913C87.6378 108.815 87.6132 108.71 87.6132 108.604C87.6132 108.498 87.6378 108.393 87.6856 108.295C87.7334 108.197 87.8035 108.108 87.8918 108.033L89.4426 106.577L89.0263 106.931L87.4755 108.387C87.3872 108.462 87.3172 108.551 87.2694 108.648C87.2216 108.746 87.197 108.851 87.197 108.957C87.197 109.063 87.2216 109.168 87.2694 109.266C87.3172 109.364 87.3872 109.453 87.4755 109.528C87.5638 109.603 87.6687 109.662 87.784 109.703C87.8994 109.744 88.0231 109.764 88.148 109.764C88.2729 109.764 88.3965 109.744 88.5119 109.703C88.6273 109.662 88.7321 109.603 88.8204 109.528L90.4855 108.169L90.9018 107.816L89.2367 109.175C89.1484 109.25 89.0436 109.309 88.9282 109.35C88.8128 109.39 88.6891 109.411 88.5643 109.411C88.4394 109.411 88.3157 109.39 88.2003 109.35C88.0849 109.309 87.9801 109.25 87.8918 109.175Z" fill="black"/>
<path opacity="0.2" d="M92.0546 113.251C91.9639 113.175 91.8926 113.083 91.8449 112.982C91.7971 112.881 91.7741 112.773 91.777 112.664L91.5675 112.842C91.4627 112.931 91.3382 113.001 91.2013 113.05C91.0643 113.098 90.9175 113.122 90.7692 113.122C90.621 113.122 90.4742 113.098 90.3372 113.05C90.2002 113.001 90.0758 112.931 89.971 112.842C89.8661 112.753 89.783 112.647 89.7262 112.531C89.6695 112.415 89.6403 112.29 89.6403 112.164C89.6403 112.038 89.6695 111.914 89.7262 111.798C89.783 111.681 89.8661 111.576 89.971 111.487L90.1455 111.339C89.962 111.33 89.7854 111.277 89.6368 111.185C89.4883 111.094 89.3743 110.967 89.3087 110.822C89.243 110.676 89.2284 110.518 89.2668 110.365C89.3052 110.213 89.3949 110.073 89.5249 109.963L91.4462 108.278L91.0299 108.631L89.1086 110.316C88.9786 110.426 88.8889 110.566 88.8506 110.718C88.8122 110.871 88.8267 111.03 88.8924 111.175C88.958 111.321 89.0721 111.447 89.2206 111.539C89.3691 111.63 89.5458 111.684 89.7292 111.692L89.5547 111.84C89.343 112.02 89.224 112.263 89.224 112.518C89.224 112.772 89.343 113.015 89.5547 113.195C89.7664 113.375 90.0535 113.476 90.353 113.476C90.6524 113.476 90.9395 113.375 91.1513 113.195L91.3607 113.017C91.3566 113.178 91.4094 113.337 91.5123 113.472C91.6151 113.607 91.7634 113.713 91.9379 113.777C92.1125 113.84 92.3053 113.857 92.4916 113.827C92.6779 113.796 92.8491 113.719 92.9832 113.605L93.3995 113.251C93.3112 113.326 93.2063 113.386 93.091 113.426C92.9756 113.467 92.8519 113.488 92.727 113.488C92.6021 113.488 92.4785 113.467 92.3631 113.426C92.2477 113.386 92.1429 113.326 92.0546 113.251Z" fill="black"/>
<path opacity="0.2" d="M85.5222 107.164C85.5397 107.042 85.5243 106.919 85.4774 106.804C85.4305 106.688 85.3532 106.583 85.2513 106.497C85.1495 106.41 85.0258 106.345 84.8897 106.305C84.7535 106.265 84.6085 106.252 84.4655 106.267C84.3262 106.148 84.2337 105.996 84.201 105.831L83.7848 106.185C84.1371 106.269 84.4515 106.44 84.6871 106.678C84.9228 106.916 85.0687 107.208 85.106 107.517C85.1943 107.592 85.2991 107.651 85.4145 107.692C85.5299 107.732 85.6535 107.753 85.7784 107.753C85.9033 107.753 86.027 107.732 86.1423 107.692C86.2577 107.651 86.3626 107.592 86.4509 107.517L88.1342 106.174L88.5505 105.82L86.8671 107.164C86.7788 107.239 86.674 107.298 86.5586 107.339C86.4432 107.379 86.3196 107.4 86.1947 107.4C86.0698 107.4 85.9461 107.379 85.8307 107.339C85.7154 107.298 85.6105 107.239 85.5222 107.164Z" fill="black"/>
<path opacity="0.2" d="M90.2774 105.869C90.3364 105.819 90.3832 105.76 90.4152 105.695C90.4473 105.63 90.4638 105.56 90.464 105.49C90.4642 105.419 90.4479 105.35 90.4162 105.284C90.3845 105.219 90.338 105.16 90.2792 105.11C90.2205 105.06 90.1508 105.021 90.074 104.994C89.9972 104.967 89.9149 104.953 89.8319 104.953C89.7488 104.953 89.6666 104.968 89.59 104.995C89.5134 105.022 89.4438 105.062 89.3853 105.112L88.969 105.465C89.0275 105.415 89.0971 105.375 89.1737 105.348C89.2503 105.321 89.3326 105.307 89.4156 105.307C89.4987 105.307 89.5809 105.32 89.6577 105.347C89.7345 105.374 89.8042 105.414 89.863 105.463C89.9217 105.513 89.9682 105.573 89.9999 105.638C90.0317 105.703 90.0479 105.773 90.0477 105.843C90.0475 105.914 90.031 105.983 89.999 106.048C89.9669 106.113 89.9201 106.173 89.8611 106.222L90.2774 105.869Z" fill="black"/>
<path d="M82.7363 99.6083L82.5762 99.4724L81.7117 100.206L81.8718 100.342L82.7363 99.6083Z" fill="#3F3D56"/>
<path d="M86.2267 101.782L86.0666 101.647L85.202 102.38L85.3621 102.516L86.2267 101.782Z" fill="#3F3D56"/>
<path d="M89.682 100.183L89.5219 100.047L88.6573 100.781L88.8174 100.917L89.682 100.183Z" fill="#3F3D56"/>
<path d="M78.9899 101.402L78.8298 101.266L77.9652 102L78.1253 102.136L78.9899 101.402Z" fill="#3F3D56"/>
<path d="M87.0406 105.67L87 105.481L85.7971 105.667L85.8377 105.856L87.0406 105.67Z" fill="#3F3D56"/>
<path d="M92.0665 103.804L92.0259 103.615L90.823 103.801L90.8636 103.99L92.0665 103.804Z" fill="#3F3D56"/>
<path d="M79.9281 97.3152L79.7032 97.3374L79.8448 98.3682L80.0697 98.346L79.9281 97.3152Z" fill="#3F3D56"/>
<path d="M77.2704 96.5814L77.0455 96.6037L77.187 97.6344L77.4119 97.6122L77.2704 96.5814Z" fill="#3F3D56"/>
<path d="M85.3621 98.3853L85.202 98.2494L84.3374 98.9832L84.4976 99.1191L85.3621 98.3853Z" fill="white"/>
<path d="M91.9586 102.118L91.7985 101.982L90.934 102.716L91.0941 102.852L91.9586 102.118Z" fill="white"/>
<path d="M94.4716 107.45L94.3115 107.314L93.4469 108.048L93.607 108.184L94.4716 107.45Z" fill="white"/>
<path d="M76.5242 98.4396L76.3641 98.3037L75.4996 99.0375L75.6597 99.1734L76.5242 98.4396Z" fill="white"/>
<path d="M87.5791 103.287L87.5078 103.104L86.3473 103.431L86.4186 103.613L87.5791 103.287Z" fill="white"/>
<path d="M83.6405 105.379L83.5692 105.197L82.4087 105.524L82.48 105.706L83.6405 105.379Z" fill="white"/>
<path d="M83.197 102.02L82.9709 102.031L83.0443 103.067L83.2704 103.056L83.197 102.02Z" fill="white"/>
<path d="M83.7734 96.1494L83.5473 96.1609L83.6207 97.1968L83.8467 97.1852L83.7734 96.1494Z" fill="white"/>
<path d="M85.0099 100.75L84.8498 100.614L83.9852 101.348L84.1453 101.483L85.0099 100.75Z" fill="#FF6584"/>
<path d="M92.5487 109.814L92.3886 109.678L91.5241 110.412L91.6842 110.548L92.5487 109.814Z" fill="#FF6584"/>
<path d="M93.8052 105.282L93.6451 105.146L92.7806 105.88L92.9407 106.016L93.8052 105.282Z" fill="#FF6584"/>
<path d="M80.4102 99.2135L80.1915 99.1638L79.8751 100.166L80.0938 100.216L80.4102 99.2135Z" fill="#FF6584"/>
<path d="M87.6471 98.9417L87.4283 98.892L87.1119 99.8943L87.3306 99.9441L87.6471 98.9417Z" fill="#FF6584"/>
<path d="M86.4943 96.4957L86.2756 96.446L85.9591 97.4484L86.1778 97.4981L86.4943 96.4957Z" fill="#FF6584"/>
<path d="M80.0786 96.0752L79.9185 95.9393L79.0539 96.6731L79.2141 96.809L80.0786 96.0752Z" fill="#FF6584"/>
<path d="M243.562 55.1682C243.562 54.6025 243.297 54.06 242.826 53.6601C242.355 53.2601 241.716 53.0354 241.049 53.0354C240.383 53.0354 239.744 53.2601 239.272 53.6601C238.801 54.06 238.536 54.6025 238.536 55.1682V150.785C238.536 151.35 238.801 151.893 239.272 152.293C239.744 152.693 240.383 152.918 241.049 152.918C241.716 152.918 242.355 152.693 242.826 152.293C243.297 151.893 243.562 151.35 243.562 150.785V55.7877" fill="#3F3D56"/>
<path d="M275.618 60.2426C271.203 53.1761 263.838 47.7638 254.966 45.0662C246.095 42.3687 236.356 42.5804 227.658 45.66C218.961 48.7396 211.932 54.465 207.949 61.714C203.967 68.9631 203.317 77.2132 206.129 84.8474H210.818C211.761 84.8474 212.533 85.7379 212.533 86.8283H213.394C214.34 86.8283 215.112 87.7187 215.112 88.8091C215.112 89.8969 214.34 90.79 213.394 90.79H212.533C212.532 90.9556 212.512 91.1207 212.474 91.2832H216.4C217.346 91.2832 218.119 92.1763 218.119 93.2641C218.119 94.3545 217.346 95.2449 216.4 95.2449H212.65C218.521 101.491 226.927 105.652 236.222 106.916C245.518 108.179 255.035 106.453 262.91 102.075C270.785 97.6975 276.453 90.9833 278.803 83.2463C281.153 75.5093 280.018 67.3064 275.618 60.2426H275.618ZM249.904 86.8336C247.554 87.9598 244.901 88.5495 242.202 88.5452C241.662 88.545 241.122 88.5219 240.584 88.4759C236.869 88.1464 233.415 86.7004 230.846 84.399C228.276 82.0977 226.761 79.0925 226.573 75.9261C226.385 72.7596 227.537 69.6405 229.822 67.1318C232.106 64.6231 235.371 62.89 239.029 62.2455C242.686 61.601 246.495 62.0875 249.767 63.6172C253.039 65.1469 255.559 67.619 256.871 70.5872C258.184 73.5554 258.204 76.8241 256.926 79.8034C255.648 82.7826 253.158 85.2761 249.904 86.8336Z" fill="#FF655B"/>
<path opacity="0.2" d="M218.016 92.598C218.084 92.3805 218.118 92.1565 218.118 91.9315C218.118 90.8422 217.345 89.951 216.4 89.951H214.793C214.673 90.1862 214.479 90.3888 214.232 90.5366C213.985 90.6844 213.695 90.7716 213.394 90.7889H212.535C212.533 90.9552 212.512 91.121 212.473 91.284H216.4C217.142 91.284 217.777 91.8345 218.016 92.598Z" fill="black"/>
<path opacity="0.2" d="M213.394 86.8279C214.136 86.8279 214.77 87.3784 215.009 88.1418C215.077 87.9244 215.112 87.7004 215.112 87.4753C215.112 86.3861 214.339 85.4948 213.394 85.4948H212.535C212.535 84.4056 211.762 83.5144 210.817 83.5144H206.128C205.059 80.6062 204.484 77.5834 204.421 74.5374C204.415 74.7745 204.407 75.0113 204.407 75.2497C204.403 78.5045 204.984 81.7409 206.128 84.8474H210.817C211.762 84.8474 212.535 85.7386 212.535 86.8279H213.394Z" fill="black"/>
<path opacity="0.2" d="M242.203 105.996C236.87 106.001 231.595 105.045 226.729 103.192C221.863 101.338 217.515 98.6299 213.973 95.2449H212.648C217.534 100.447 224.203 104.231 231.734 106.074C239.265 107.916 247.285 107.726 254.683 105.53C262.082 103.334 268.492 99.2395 273.028 93.8145C277.564 88.3894 280 81.9018 280 75.2497C280 75.0491 279.993 74.8499 279.989 74.6502C279.763 83.0288 275.683 90.9998 268.622 96.8578C261.56 102.716 252.078 105.996 242.203 105.996Z" fill="black"/>
<path opacity="0.2" d="M242.202 59.2881C238.483 59.2887 234.847 60.2253 231.755 61.9795C228.662 63.7337 226.252 66.2267 224.829 69.1433C223.407 72.06 223.035 75.2692 223.761 78.3653C224.487 81.4613 226.278 84.3052 228.908 86.5372C231.538 88.7692 234.889 90.2891 238.537 90.9047C242.185 91.5204 245.967 91.2041 249.403 89.996C252.839 88.7878 255.776 86.742 257.842 84.1172C259.909 81.4924 261.011 78.4065 261.011 75.2497C261.006 71.0175 259.022 66.9601 255.496 63.9678C251.969 60.9754 247.188 59.2924 242.202 59.2881ZM249.904 86.8336C247.554 87.9598 244.901 88.5495 242.202 88.5452C241.662 88.5451 241.122 88.5219 240.584 88.4759C236.869 88.1464 233.415 86.7004 230.846 84.399C228.276 82.0977 226.761 79.0925 226.573 75.9261C226.385 72.7596 227.537 69.6405 229.821 67.1318C232.106 64.6231 235.371 62.89 239.029 62.2455C242.686 61.601 246.495 62.0875 249.767 63.6172C253.039 65.1469 255.558 67.6189 256.871 70.5871C258.184 73.5553 258.204 76.8241 256.926 79.8034C255.648 82.7826 253.158 85.2761 249.904 86.8336Z" fill="black"/>
<path d="M275.618 59.7099V65.0462C275.618 65.4359 275.481 65.8167 275.224 66.1396C274.967 66.4625 274.602 66.7127 274.176 66.858C273.75 67.0034 273.283 67.0372 272.834 66.9551C272.386 66.8729 271.976 66.6787 271.658 66.3973V67.0054C271.658 67.6202 271.371 68.2098 270.859 68.6445C270.346 69.0793 269.652 69.3235 268.927 69.3235C268.203 69.3235 267.508 69.0793 266.996 68.6445C266.484 68.2098 266.196 67.6202 266.196 67.0054V66.4986C265.866 66.7509 265.456 66.9164 265.017 66.9751C264.578 67.0339 264.129 66.9833 263.723 66.8296C263.317 66.6759 262.973 66.4256 262.731 66.1091C262.489 65.7926 262.361 65.4234 262.362 65.0462L262.252 59.3743V58.066C262.252 57.8564 262.154 57.6553 261.979 57.5071C261.805 57.3589 261.568 57.2756 261.321 57.2756C261.074 57.2756 260.837 57.3589 260.662 57.5071C260.488 57.6553 260.39 57.8564 260.39 58.066V59.3743L260.28 64.1164C260.28 64.6343 260.038 65.1309 259.606 65.4971C259.175 65.8633 258.59 66.0691 257.979 66.0691C257.369 66.0691 256.784 65.8633 256.353 65.4971C255.921 65.1309 255.679 64.6343 255.679 64.1164L255.397 59.3743V56.9502C255.397 56.6067 255.236 56.2772 254.95 56.0343C254.664 55.7914 254.276 55.6549 253.871 55.6549C253.466 55.6549 253.078 55.7914 252.792 56.0343C252.506 56.2772 252.345 56.6067 252.345 56.9502V59.3743L252.173 64.1164C252.173 64.5225 252.024 64.9186 251.747 65.2494C251.469 65.5803 251.077 65.8294 250.625 65.962C250.173 66.0947 249.683 66.1042 249.224 65.9894C248.765 65.8746 248.36 65.6411 248.065 65.3215C247.701 65.7163 247.172 65.9768 246.587 66.0488C246.003 66.1209 245.408 65.9989 244.927 65.7083V67.0054C244.927 67.6202 244.639 68.2098 244.127 68.6445C243.615 69.0792 242.92 69.3235 242.196 69.3235C241.471 69.3235 240.777 69.0792 240.264 68.6445C239.752 68.2098 239.464 67.6202 239.464 67.0054V63.0006C239.465 63.4473 239.284 63.8806 238.954 64.228C238.623 64.5755 238.162 64.8162 237.647 64.9098C237.132 65.0035 236.596 64.9446 236.126 64.7428C235.656 64.541 235.283 64.2087 235.067 63.8012V67.0054C235.066 67.6198 234.778 68.2087 234.266 68.6429C233.754 69.0771 233.06 69.321 232.336 69.321C231.612 69.321 230.918 69.0771 230.405 68.6429C229.893 68.2087 229.605 67.6198 229.604 67.0054V59.3743H229.589V67.0054C229.589 67.6202 229.301 68.2098 228.789 68.6445C228.277 69.0792 227.582 69.3235 226.858 69.3235C226.134 69.3235 225.439 69.0792 224.927 68.6445C224.414 68.2098 224.127 67.6202 224.127 67.0054V63.8282C223.905 64.2305 223.528 64.5566 223.059 64.7527C222.589 64.9488 222.055 65.0031 221.544 64.9067C221.034 64.8102 220.577 64.5688 220.25 64.2222C219.922 63.8757 219.744 63.4447 219.745 63.0006V59.3743H219.51V65.8896C219.51 66.5044 219.222 67.094 218.71 67.5287C218.198 67.9635 217.503 68.2077 216.779 68.2077C216.054 68.2077 215.36 67.9635 214.848 67.5287C214.335 67.094 214.048 66.5044 214.048 65.8896V63.0006C214.048 63.5185 213.805 64.0152 213.374 64.3813C212.942 64.7475 212.357 64.9533 211.747 64.9533C211.137 64.9533 210.552 64.7475 210.12 64.3813C209.689 64.0152 209.446 63.5185 209.446 63.0006V58.702C212.82 53.7337 217.702 49.6236 223.582 46.7993C229.462 43.9749 236.127 42.5395 242.882 42.6425C249.638 42.7454 256.237 44.3828 261.994 47.3844C267.752 50.386 272.456 54.6421 275.618 59.7099Z" fill="#E6E6E6"/>
<path opacity="0.2" d="M226.858 68.2077C226.499 68.2077 226.144 68.1477 225.813 68.0312C225.481 67.9148 225.18 67.744 224.927 67.5288C224.673 67.3135 224.472 67.0579 224.335 66.7767C224.197 66.4954 224.127 66.194 224.127 65.8896V67.0984C224.127 67.7132 224.414 68.3028 224.927 68.7375C225.439 69.1722 226.134 69.4164 226.858 69.4164C227.582 69.4164 228.277 69.1722 228.789 68.7375C229.301 68.3028 229.589 67.7132 229.589 67.0984V65.8896C229.589 66.194 229.519 66.4954 229.381 66.7767C229.244 67.0579 229.043 67.3135 228.789 67.5288C228.536 67.744 228.235 67.9148 227.903 68.0312C227.572 68.1477 227.217 68.2077 226.858 68.2077Z" fill="black"/>
<path opacity="0.2" d="M232.336 68.2077C231.977 68.2077 231.622 68.1477 231.291 68.0312C230.959 67.9148 230.658 67.744 230.404 67.5288C230.151 67.3135 229.95 67.0579 229.812 66.7767C229.675 66.4954 229.604 66.194 229.605 65.8896V67.0984C229.605 67.7132 229.892 68.3028 230.404 68.7375C230.917 69.1722 231.611 69.4164 232.336 69.4164C233.06 69.4164 233.755 69.1722 234.267 68.7375C234.779 68.3028 235.067 67.7132 235.067 67.0984V65.8896C235.067 66.194 234.996 66.4954 234.859 66.7767C234.722 67.0579 234.521 67.3135 234.267 67.5288C234.013 67.744 233.712 67.9148 233.381 68.0312C233.05 68.1477 232.694 68.2077 232.336 68.2077Z" fill="black"/>
<path opacity="0.2" d="M224.127 62.7123C223.905 63.1147 223.529 63.4408 223.059 63.6369C222.589 63.833 222.055 63.8873 221.544 63.7909C221.034 63.6944 220.577 63.453 220.25 63.1064C219.922 62.7598 219.744 62.3289 219.745 61.8848V63.0936C219.744 63.5377 219.922 63.9686 220.25 64.3152C220.577 64.6617 221.034 64.9032 221.544 64.9996C222.055 65.0961 222.589 65.0418 223.059 64.8457C223.529 64.6496 223.905 64.3234 224.127 63.9211V62.7123Z" fill="black"/>
<path opacity="0.2" d="M229.605 58.2585H229.589V59.4672H229.605V58.2585Z" fill="black"/>
<path opacity="0.2" d="M214.048 61.8848C214.048 62.4027 213.805 62.8993 213.374 63.2655C212.942 63.6317 212.357 63.8374 211.747 63.8374C211.137 63.8374 210.552 63.6317 210.12 63.2655C209.689 62.8993 209.446 62.4027 209.446 61.8848V63.0936C209.446 63.6115 209.689 64.1081 210.12 64.4743C210.552 64.8405 211.137 65.0462 211.747 65.0462C212.357 65.0462 212.942 64.8405 213.374 64.4743C213.805 64.1081 214.048 63.6115 214.048 63.0936V61.8848Z" fill="black"/>
<path opacity="0.2" d="M219.744 58.2585H219.51V59.4672H219.744V58.2585Z" fill="black"/>
<path opacity="0.2" d="M216.779 67.0919C216.42 67.0919 216.065 67.032 215.734 66.9155C215.402 66.799 215.101 66.6282 214.848 66.413C214.594 66.1977 214.393 65.9422 214.256 65.6609C214.118 65.3797 214.048 65.0782 214.048 64.7738V65.9826C214.048 66.5974 214.335 67.187 214.848 67.6217C215.36 68.0564 216.055 68.3007 216.779 68.3007C217.503 68.3007 218.198 68.0564 218.71 67.6217C219.222 67.187 219.51 66.5974 219.51 65.9826V64.7738C219.51 65.0782 219.44 65.3797 219.302 65.6609C219.165 65.9422 218.964 66.1977 218.71 66.413C218.457 66.6282 218.155 66.799 217.824 66.9155C217.493 67.032 217.138 67.0919 216.779 67.0919Z" fill="black"/>
<path opacity="0.2" d="M242.196 68.2077C241.837 68.2077 241.482 68.1477 241.15 68.0312C240.819 67.9148 240.518 67.744 240.264 67.5288C240.011 67.3135 239.81 67.0579 239.672 66.7767C239.535 66.4954 239.464 66.194 239.464 65.8896V67.0984C239.464 67.7132 239.752 68.3028 240.264 68.7375C240.777 69.1722 241.471 69.4164 242.196 69.4164C242.92 69.4164 243.615 69.1722 244.127 68.7375C244.639 68.3028 244.927 67.7132 244.927 67.0984V65.8896C244.927 66.194 244.856 66.4954 244.719 66.7767C244.582 67.0579 244.381 67.3135 244.127 67.5288C243.873 67.744 243.572 67.9148 243.241 68.0312C242.91 68.1477 242.554 68.2077 242.196 68.2077Z" fill="black"/>
<path opacity="0.2" d="M262.252 56.9502C262.252 56.7406 262.154 56.5395 261.979 56.3913C261.805 56.2431 261.568 56.1598 261.321 56.1598C261.074 56.1598 260.837 56.2431 260.662 56.3913C260.488 56.5395 260.39 56.7406 260.39 56.9502V58.159C260.39 57.9493 260.488 57.7483 260.662 57.6001C260.837 57.4519 261.074 57.3686 261.321 57.3686C261.568 57.3686 261.805 57.4519 261.979 57.6001C262.154 57.7483 262.252 57.9493 262.252 58.159V56.9502Z" fill="black"/>
<path opacity="0.2" d="M239.464 61.8848C239.465 62.3315 239.284 62.7647 238.954 63.1122C238.623 63.4597 238.162 63.7003 237.647 63.794C237.132 63.8877 236.596 63.8288 236.126 63.627C235.656 63.4252 235.283 63.0929 235.067 62.6854V63.8942C235.283 64.3016 235.656 64.634 236.126 64.8358C236.596 65.0375 237.132 65.0965 237.647 65.0028C238.162 64.9091 238.623 64.6685 238.954 64.321C239.284 63.9735 239.465 63.5403 239.464 63.0936V61.8848Z" fill="black"/>
<path opacity="0.2" d="M257.979 64.9533C257.677 64.9533 257.378 64.9028 257.099 64.8047C256.82 64.7066 256.566 64.5627 256.352 64.3814C256.139 64.2001 255.969 63.9848 255.854 63.7479C255.738 63.511 255.679 63.257 255.679 63.0006L255.397 58.2585V59.4672L255.679 64.2094C255.679 64.7273 255.921 65.2239 256.353 65.5901C256.784 65.9563 257.369 66.162 257.979 66.162C258.59 66.162 259.175 65.9563 259.606 65.5901C260.038 65.2239 260.28 64.7273 260.28 64.2094L260.39 59.4672V58.2585L260.28 63.0006C260.28 63.257 260.221 63.511 260.105 63.7479C259.989 63.9848 259.82 64.2001 259.606 64.3814C259.393 64.5627 259.139 64.7066 258.86 64.8047C258.581 64.9028 258.282 64.9533 257.979 64.9533Z" fill="black"/>
<path opacity="0.2" d="M273.317 65.8831C273.007 65.8832 272.7 65.8299 272.415 65.7265C272.13 65.6231 271.873 65.4717 271.658 65.2815V65.8896C271.658 66.5044 271.371 67.094 270.859 67.5287C270.346 67.9634 269.652 68.2077 268.927 68.2077C268.203 68.2077 267.508 67.9634 266.996 67.5287C266.484 67.094 266.196 66.5044 266.196 65.8896V65.3828C265.866 65.6351 265.456 65.8006 265.017 65.8593C264.578 65.9181 264.129 65.8675 263.723 65.7138C263.317 65.5601 262.973 65.3098 262.731 64.9933C262.489 64.6768 262.361 64.3076 262.362 63.9304L262.252 58.2585V59.4672L262.362 65.1392C262.361 65.5164 262.489 65.8856 262.731 66.2021C262.973 66.5186 263.317 66.7689 263.723 66.9226C264.129 67.0763 264.578 67.1268 265.017 67.0681C265.456 67.0093 265.866 66.8438 266.196 66.5916V67.0984C266.196 67.7132 266.484 68.3028 266.996 68.7375C267.508 69.1722 268.203 69.4164 268.927 69.4164C269.652 69.4164 270.346 69.1722 270.859 68.7375C271.371 68.3028 271.658 67.7132 271.658 67.0984V66.4903C271.976 66.7716 272.386 66.9659 272.834 67.048C273.283 67.1302 273.75 67.0964 274.176 66.951C274.602 66.8057 274.967 66.5554 275.224 66.2325C275.481 65.9096 275.618 65.5288 275.618 65.1392V63.9304C275.618 64.1869 275.558 64.4408 275.443 64.6777C275.327 64.9146 275.158 65.1299 274.944 65.3112C274.73 65.4926 274.477 65.6364 274.198 65.7345C273.918 65.8326 273.619 65.8831 273.317 65.8831Z" fill="black"/>
<path opacity="0.2" d="M249.872 64.9532C249.524 64.9533 249.18 64.8859 248.867 64.7564C248.554 64.6269 248.279 64.4385 248.065 64.2056C247.701 64.6004 247.172 64.861 246.587 64.933C246.003 65.0051 245.408 64.8831 244.927 64.5925V65.8012C245.408 66.0919 246.003 66.2138 246.587 66.1418C247.172 66.0697 247.701 65.8092 248.065 65.4144C248.36 65.7341 248.765 65.9676 249.224 66.0824C249.683 66.1972 250.173 66.1876 250.625 66.055C251.077 65.9223 251.469 65.6732 251.747 65.3424C252.024 65.0116 252.173 64.6155 252.173 64.2094L252.345 59.4672V58.2585L252.173 63.0006C252.173 63.257 252.113 63.511 251.998 63.7479C251.882 63.9848 251.713 64.2001 251.499 64.3814C251.285 64.5627 251.032 64.7065 250.753 64.8047C250.474 64.9028 250.174 64.9533 249.872 64.9532Z" fill="black"/>
<path opacity="0.2" d="M255.397 55.8344C255.397 55.4908 255.236 55.1614 254.95 54.9185C254.664 54.6756 254.276 54.5391 253.871 54.5391C253.466 54.5391 253.078 54.6756 252.792 54.9185C252.506 55.1614 252.345 55.4908 252.345 55.8344V57.0432C252.345 56.6996 252.506 56.3702 252.792 56.1273C253.078 55.8844 253.466 55.7479 253.871 55.7479C254.276 55.7479 254.664 55.8844 254.95 56.1273C255.236 56.3702 255.397 56.6996 255.397 57.0432V55.8344Z" fill="black"/>
<path d="M229.878 56.0734H229.331V58.5839H229.878V56.0734Z" fill="#3F3D56"/>
<path d="M240.231 54.7251H239.684V57.2356H240.231V54.7251Z" fill="#3F3D56"/>
<path d="M269.154 56.2128H268.606V58.7234H269.154V56.2128Z" fill="#3F3D56"/>
<path d="M227.085 64.5813H226.537V67.0918H227.085V64.5813Z" fill="#3F3D56"/>
<path d="M249.46 60.1944L249.01 59.9299L247.327 61.9944L247.777 62.259L249.46 60.1944Z" fill="#3F3D56"/>
<path d="M220.453 56.228L220.113 56.5926L222.432 58.1503L222.772 57.7857L220.453 56.228Z" fill="#3F3D56"/>
<path d="M252.662 46.8367L252.322 47.2013L254.642 48.759L254.982 48.3944L252.662 46.8367Z" fill="#3F3D56"/>
<path d="M214.427 58.8325L214.087 59.1971L216.406 60.7548L216.746 60.3902L214.427 58.8325Z" fill="#3F3D56"/>
<path d="M231.905 50.1689H231.357V52.6795H231.905V50.1689Z" fill="white"/>
<path d="M216.896 63.0936H216.348V65.6041H216.896V63.0936Z" fill="white"/>
<path d="M242.532 46.5426H241.984V49.0531H242.532V46.5426Z" fill="white"/>
<path d="M268.825 62.2567H268.278V64.7673H268.825V62.2567Z" fill="white"/>
<path d="M245.576 55.3346L245.087 55.1261L243.76 57.37L244.25 57.5785L245.576 55.3346Z" fill="white"/>
<path d="M243.057 64.6329L242.567 64.4244L241.241 66.6684L241.73 66.8769L243.057 64.6329Z" fill="white"/>
<path d="M273.294 60.4487L272.804 60.2402L271.478 62.4841L271.967 62.6926L273.294 60.4487Z" fill="white"/>
<path d="M235.527 59.5298L235.163 59.8777L237.377 61.5432L237.74 61.1953L235.527 59.5298Z" fill="white"/>
<path d="M224.681 48.6508L224.317 48.9987L226.531 50.6642L226.894 50.3163L224.681 48.6508Z" fill="white"/>
<path d="M260.724 52.835L260.361 53.1829L262.574 54.8484L262.938 54.5005L260.724 52.835Z" fill="white"/>
<path d="M247.468 44.6525L247.105 45.0004L249.318 46.6659L249.682 46.318L247.468 44.6525Z" fill="white"/>
<path d="M236.068 54.7251H235.52V57.2356H236.068V54.7251Z" fill="#FF6584"/>
<path d="M266.971 56.3105L266.467 56.1288L265.311 58.4397L265.815 58.6214L266.971 56.3105Z" fill="#FF6584"/>
<path d="M225.103 58.7753L224.629 59.0078L226.108 61.182L226.582 60.9495L225.103 58.7753Z" fill="#FF6584"/>
<path d="M256.436 57.0086L255.962 57.2411L257.441 59.4153L257.915 59.1828L256.436 57.0086Z" fill="#FF6584"/>
<path d="M236.935 47.8033L236.461 48.0358L237.94 50.21L238.414 49.9775L236.935 47.8033Z" fill="#FF6584"/>
<path d="M260.161 47.3384L259.687 47.5708L261.166 49.745L261.64 49.5126L260.161 47.3384Z" fill="#FF6584"/>
<path d="M230.033 45.2928L229.559 45.5252L231.038 47.6994L231.512 47.4669L230.033 45.2928Z" fill="#FF6584"/>
<path d="M249.763 49.704H249.215V52.2145H249.763V49.704Z" fill="#FF6584"/>
<path d="M218.211 53.8882H217.663V56.3988H218.211V53.8882Z" fill="#FF6584"/>
<path d="M111.279 145.616C118.568 145.616 124.476 140.601 124.476 134.415C124.476 128.229 118.568 123.215 111.279 123.215C103.991 123.215 98.0824 128.229 98.0824 134.415C98.0824 140.601 103.991 145.616 111.279 145.616Z" fill="#2F2E41"/>
<path d="M116.376 148.761L120.321 148.155L119.042 142.156L115.097 142.762L116.376 148.761Z" fill="#2F2E41"/>
<path d="M108.486 149.973L112.431 149.367L111.152 143.368L107.207 143.974L108.486 149.973Z" fill="#2F2E41"/>
<path d="M110.58 151.236C111.988 150.224 112.767 149.04 112.32 148.592C111.873 148.144 110.369 148.601 108.961 149.613C107.553 150.625 106.774 151.809 107.221 152.257C107.668 152.705 109.172 152.248 110.58 151.236Z" fill="#2F2E41"/>
<path d="M118.306 150.049C119.714 149.037 120.493 147.853 120.046 147.405C119.599 146.957 118.095 147.414 116.687 148.426C115.279 149.438 114.5 150.622 114.947 151.07C115.394 151.518 116.898 151.061 118.306 150.049Z" fill="#2F2E41"/>
<path d="M110.355 135.504C112.846 135.504 114.866 133.79 114.866 131.676C114.866 129.561 112.846 127.848 110.355 127.848C107.864 127.848 105.845 129.561 105.845 131.676C105.845 133.79 107.864 135.504 110.355 135.504Z" fill="white"/>
<path d="M108.502 131.58C109.332 131.58 110.005 131.008 110.005 130.303C110.005 129.599 109.332 129.027 108.502 129.027C107.671 129.027 106.998 129.599 106.998 130.303C106.998 131.008 107.671 131.58 108.502 131.58Z" fill="#3F3D56"/>
<path d="M121.69 122.23C121.888 118.084 117.677 114.571 112.285 114.385C106.892 114.2 102.36 117.41 102.161 121.557C101.963 125.704 105.711 126.646 111.104 126.832C116.497 127.018 121.491 126.377 121.69 122.23Z" fill="#CFCCE0"/>
<path d="M105.525 133.626C105.781 132.68 103.109 131.352 99.5565 130.661C96.0044 129.97 92.9177 130.177 92.6621 131.124C92.4065 132.07 95.0788 133.397 98.6309 134.088C102.183 134.78 105.27 134.572 105.525 133.626Z" fill="#2F2E41"/>
<path d="M131.43 137.282C131.686 136.336 129.014 135.009 125.462 134.317C121.909 133.626 118.823 133.833 118.567 134.78C118.312 135.726 120.984 137.054 124.536 137.745C128.088 138.436 131.175 138.229 131.43 137.282Z" fill="#2F2E41"/>
<path d="M114.904 138.829C114.974 139.159 114.968 139.498 114.884 139.825C114.801 140.153 114.642 140.464 114.417 140.739C114.192 141.015 113.905 141.25 113.573 141.431C113.241 141.613 112.87 141.737 112.481 141.797C112.092 141.856 111.693 141.851 111.307 141.78C110.921 141.708 110.556 141.573 110.231 141.382C109.907 141.191 109.63 140.948 109.416 140.666C109.202 140.384 109.056 140.069 108.986 139.739C108.69 138.352 109.954 137.861 111.588 137.61C113.222 137.359 114.608 137.443 114.904 138.829Z" fill="white"/>
<path d="M186.289 95.5572C187.623 92.5955 187.816 89.9065 186.721 89.5512C185.625 89.1958 183.656 91.3086 182.322 94.2703C180.988 97.232 180.795 99.921 181.891 100.276C182.986 100.632 184.955 98.5189 186.289 95.5572Z" fill="#2F2E41"/>
<path d="M176.425 148.058C183.896 148.058 189.953 142.918 189.953 136.577C189.953 130.235 183.896 125.095 176.425 125.095C168.953 125.095 162.897 130.235 162.897 136.577C162.897 142.918 168.953 148.058 176.425 148.058Z" fill="#2F2E41"/>
<path d="M174.37 145.588H170.26V151.837H174.37V145.588Z" fill="#2F2E41"/>
<path d="M182.59 145.588H178.48V151.837H182.59V145.588Z" fill="#2F2E41"/>
<path d="M173.685 153C175.577 153 177.11 152.512 177.11 151.91C177.11 151.308 175.577 150.82 173.685 150.82C171.793 150.82 170.26 151.308 170.26 151.91C170.26 152.512 171.793 153 173.685 153Z" fill="#2F2E41"/>
<path d="M181.905 152.855C183.796 152.855 185.33 152.367 185.33 151.765C185.33 151.163 183.796 150.675 181.905 150.675C180.013 150.675 178.48 151.163 178.48 151.765C178.48 152.367 180.013 152.855 181.905 152.855Z" fill="#2F2E41"/>
<path d="M176.767 137.594C179.321 137.594 181.391 135.837 181.391 133.67C181.391 131.502 179.321 129.746 176.767 129.746C174.214 129.746 172.144 131.502 172.144 133.67C172.144 135.837 174.214 137.594 176.767 137.594Z" fill="white"/>
<path d="M176.767 134.978C177.619 134.978 178.309 134.392 178.309 133.67C178.309 132.947 177.619 132.362 176.767 132.362C175.916 132.362 175.226 132.947 175.226 133.67C175.226 134.392 175.916 134.978 176.767 134.978Z" fill="#3F3D56"/>
<path d="M163.302 125.899C162.21 121.747 165.701 117.551 171.101 116.528C176.501 115.505 181.764 118.041 182.856 122.193C183.948 126.345 180.37 127.876 174.97 128.9C169.57 129.923 164.394 130.051 163.302 125.899Z" fill="#CFCCE0"/>
<path d="M171.801 115.066C179.273 115.066 185.33 109.926 185.33 103.584C185.33 97.243 179.273 92.1024 171.801 92.1024C164.33 92.1024 158.273 97.243 158.273 103.584C158.273 109.926 164.33 115.066 171.801 115.066Z" fill="#2F2E41"/>
<path d="M169.746 112.595H165.637V118.845H169.746V112.595Z" fill="#2F2E41"/>
<path d="M177.966 112.595H173.856V118.845H177.966V112.595Z" fill="#2F2E41"/>
<path d="M169.061 120.008C170.953 120.008 172.486 119.52 172.486 118.918C172.486 118.316 170.953 117.828 169.061 117.828C167.17 117.828 165.637 118.316 165.637 118.918C165.637 119.52 167.17 120.008 169.061 120.008Z" fill="#2F2E41"/>
<path d="M177.281 119.862C179.173 119.862 180.706 119.374 180.706 118.772C180.706 118.17 179.173 117.682 177.281 117.682C175.39 117.682 173.856 118.17 173.856 118.772C173.856 119.374 175.39 119.862 177.281 119.862Z" fill="#2F2E41"/>
<path d="M172.144 104.602C174.697 104.602 176.767 102.845 176.767 100.677C176.767 98.5102 174.697 96.7532 172.144 96.7532C169.59 96.7532 167.52 98.5102 167.52 100.677C167.52 102.845 169.59 104.602 172.144 104.602Z" fill="white"/>
<path d="M172.144 101.986C172.995 101.986 173.685 101.4 173.685 100.677C173.685 99.955 172.995 99.3694 172.144 99.3694C171.293 99.3694 170.603 99.955 170.603 100.677C170.603 101.4 171.293 101.986 172.144 101.986Z" fill="#3F3D56"/>
<path d="M158.678 92.9064C157.586 88.7544 161.078 84.5589 166.478 83.5356C171.877 82.5123 177.14 85.0486 178.232 89.2006C179.325 93.3527 175.746 94.884 170.347 95.9073C164.947 96.9306 159.771 97.0584 158.678 92.9064Z" fill="#CFCCE0"/>
<path d="M162.676 100.717C163.178 99.8174 160.849 97.9869 157.474 96.6282C154.099 95.2695 150.955 94.8971 150.452 95.7964C149.95 96.6958 152.279 98.5263 155.654 99.885C159.029 101.244 162.173 101.616 162.676 100.717Z" fill="#2F2E41"/>
<path d="M165.156 107.726C165.156 108.85 168.565 111.069 172.349 111.069C176.132 111.069 179.679 107.906 179.679 106.782C179.679 105.658 176.132 107 172.349 107C168.565 107 165.156 106.603 165.156 107.726Z" fill="white"/>
<path d="M211.307 119.356C212.348 119.356 213.192 118.639 213.192 117.756C213.192 116.873 212.348 116.156 211.307 116.156C210.266 116.156 209.423 116.873 209.423 117.756C209.423 118.639 210.266 119.356 211.307 119.356Z" fill="#FF655B"/>
<path d="M216.441 106.442C217.482 106.442 218.325 105.726 218.325 104.843C218.325 103.959 217.482 103.243 216.441 103.243C215.4 103.243 214.556 103.959 214.556 104.843C214.556 105.726 215.4 106.442 216.441 106.442Z" fill="#FF655B"/>
<path d="M211.747 99.8415C212.788 99.8415 213.632 99.1254 213.632 98.2419C213.632 97.3585 212.788 96.6423 211.747 96.6423C210.706 96.6423 209.862 97.3585 209.862 98.2419C209.862 99.1254 210.706 99.8415 211.747 99.8415Z" fill="#FF655B"/>
<path d="M195.478 143.021L196.491 146.133L203.062 144.592L202.048 141.479L195.478 143.021Z" fill="#2F2E41"/>
<path d="M195.932 146.683C196.565 146.534 196.7 145.253 196.234 143.82C195.767 142.388 194.876 141.347 194.243 141.495C193.61 141.644 193.475 142.925 193.942 144.358C194.408 145.79 195.3 146.831 195.932 146.683Z" fill="#2F2E41"/>
<path d="M216.218 132.316C216.683 129.407 216.187 126.949 215.111 126.825C214.035 126.702 212.787 128.959 212.322 131.868C211.858 134.777 212.353 137.235 213.429 137.359C214.505 137.482 215.754 135.225 216.218 132.316Z" fill="#2F2E41"/>
<path d="M213.044 152.672C219.961 152.672 225.568 147.913 225.568 142.042C225.568 136.171 219.961 131.412 213.044 131.412C206.127 131.412 200.52 136.171 200.52 142.042C200.52 147.913 206.127 152.672 213.044 152.672Z" fill="#2F2E41"/>
<path d="M195.478 141.137L196.491 144.25L203.062 142.708L202.048 139.596L195.478 141.137Z" fill="#2F2E41"/>
<path d="M195.932 144.8C196.565 144.652 196.7 143.37 196.233 141.938C195.767 140.505 194.875 139.464 194.243 139.613C193.61 139.761 193.475 141.043 193.941 142.475C194.408 143.908 195.299 144.949 195.932 144.8Z" fill="#2F2E41"/>
<path d="M216.333 139.586C218.697 139.586 220.613 137.959 220.613 135.953C220.613 133.946 218.697 132.32 216.333 132.32C213.969 132.32 212.053 133.946 212.053 135.953C212.053 137.959 213.969 139.586 216.333 139.586Z" fill="white"/>
<path d="M217.702 135.559C218.49 135.559 219.129 135.017 219.129 134.348C219.129 133.679 218.49 133.137 217.702 133.137C216.914 133.137 216.275 133.679 216.275 134.348C216.275 135.017 216.914 135.559 217.702 135.559Z" fill="#3F3D56"/>
<path d="M227.507 149.347C232.142 149.15 235.692 145.471 235.436 141.129C235.18 136.787 231.215 133.427 226.58 133.624C221.945 133.821 221.218 136.908 221.474 141.25C221.73 145.592 222.873 149.544 227.507 149.347Z" fill="#CFCCE0"/>
<path d="M207.926 137.545C207.171 137.596 206.424 137.392 205.847 136.976C205.27 136.56 204.912 135.966 204.851 135.326C204.79 134.686 205.031 134.051 205.521 133.562C206.012 133.072 206.711 132.768 207.465 132.716C209.036 132.609 209.465 133.667 209.592 135C209.719 136.333 209.497 137.437 207.926 137.545Z" fill="white"/>
<path d="M211.518 134.842C211.982 131.933 211.486 129.475 210.411 129.351C209.335 129.227 208.086 131.485 207.621 134.394C207.157 137.302 207.652 139.761 208.728 139.884C209.804 140.008 211.053 137.751 211.518 134.842Z" fill="#2F2E41"/>
<path d="M210.365 129.753C211.406 129.753 212.25 129.037 212.25 128.154C212.25 127.27 211.406 126.554 210.365 126.554C209.324 126.554 208.48 127.27 208.48 128.154C208.48 129.037 209.324 129.753 210.365 129.753Z" fill="#FF655B"/>
<path d="M199.382 91.3571C199.425 91.0758 199.397 90.7899 199.299 90.5186C199.201 90.2473 199.036 89.997 198.815 89.7844C198.594 89.5718 198.321 89.4019 198.016 89.2861C197.711 89.1703 197.38 89.1113 197.046 89.1131H196.299C196.48 88.8259 196.575 88.5055 196.575 88.1799C196.573 87.6501 196.324 87.1424 195.883 86.7678C195.441 86.3931 194.843 86.182 194.219 86.1804H186.366C185.741 86.1804 185.142 86.3911 184.7 86.7661C184.258 87.141 184.01 87.6496 184.01 88.1799C184.01 88.7103 184.258 89.2188 184.7 89.5938C185.142 89.9688 185.741 90.1795 186.366 90.1795H187.112C186.931 90.4666 186.837 90.7871 186.837 91.1126C186.839 91.5284 186.993 91.9335 187.277 92.2718C187.562 92.6101 187.964 92.8649 188.427 93.0009C188.384 93.2822 188.412 93.5681 188.51 93.8394C188.608 94.1107 188.773 94.3611 188.994 94.5737C189.216 94.7863 189.488 94.9562 189.793 95.072C190.098 95.1878 190.429 95.2467 190.763 95.2449H198.616C199.174 95.2453 199.713 95.0778 200.139 94.7723C200.564 94.4667 200.848 94.043 200.94 93.5764C201.032 93.1098 200.926 92.6307 200.641 92.2243C200.355 91.8179 199.909 91.5106 199.382 91.3571Z" fill="#FF655B"/>
<path d="M94.0051 105.804L93.8347 105.659L92.9147 106.44L93.0851 106.585L94.0051 105.804Z" fill="#3F3D56"/>
</g>
<defs>
<clipPath id="clip0">
<rect width="280" height="153" fill="white"/>
</clipPath>
</defs>
</svg>
