<svg width="280" height="153" viewBox="0 0 280 153" fill="none" xmlns="http://www.w3.org/2000/svg">
<path d="M37.6525 79.7462H28.6916C28.3765 79.7462 28.0743 79.8713 27.8515 80.0939C27.6287 80.3166 27.5035 80.6186 27.5035 80.9336V84.8646C27.5035 85.1796 27.6287 85.4816 27.8515 85.7043C28.0743 85.9269 28.3765 86.052 28.6916 86.052H30.1765V91.9422H36.1675V86.052H37.6525C37.9675 86.052 38.2697 85.9269 38.4925 85.7043C38.7153 85.4816 38.8405 85.1796 38.8405 84.8646V80.9336C38.8405 80.6186 38.7153 80.3166 38.4925 80.0939C38.2697 79.8713 37.9675 79.7462 37.6525 79.7462Z" fill="#FF655B"/>
<path d="M46.6278 115.724C41.1399 107.697 38.3343 98.1414 38.6131 88.4242C38.6181 88.1999 38.5453 87.9809 38.407 87.8043C38.2688 87.6276 38.0736 87.5042 37.8547 87.4551V85.7565H28.3908V87.4315H28.2604C28.1269 87.4316 27.9949 87.4593 27.8726 87.5128C27.7503 87.5662 27.6403 87.6443 27.5496 87.7421C27.4588 87.8399 27.3892 87.9554 27.3451 88.0813C27.301 88.2072 27.2834 88.3409 27.2932 88.4739C28.0388 98.8615 25.5212 108.177 19.7403 116.42C19.4077 116.894 19.2377 117.463 19.256 118.041L20.2908 150.034C20.3157 150.748 20.6153 151.424 21.1272 151.922C21.6392 152.42 22.3237 152.702 23.0381 152.707H44.4441C45.1666 152.701 45.8583 152.414 46.3718 151.906C46.8853 151.398 47.18 150.709 47.1931 149.987L47.5918 118.924C47.6036 117.784 47.2673 116.668 46.6278 115.724Z" fill="#3F3D56"/>
<path opacity="0.2" d="M35.7845 81.027C35.7845 81.7065 35.5144 82.3581 35.0338 82.8385C34.5531 83.3189 33.9011 83.5888 33.2213 83.5888C32.5416 83.5888 31.8896 83.3189 31.4089 82.8385C30.9282 82.3581 30.6582 81.7065 30.6582 81.027" fill="black"/>
<path d="M43.2392 126.351H40.6471C40.3996 124.746 39.5856 123.282 38.3524 122.225C37.1191 121.168 35.548 120.587 33.9232 120.587C32.2984 120.587 30.7273 121.168 29.494 122.225C28.2607 123.282 27.4467 124.746 27.1993 126.351H24.607C24.3312 126.351 24.0587 126.41 23.8081 126.525C23.5575 126.64 23.3348 126.808 23.1552 127.018C22.9756 127.227 22.8434 127.472 22.7676 127.737C22.6919 128.002 22.6744 128.281 22.7163 128.553L25.5319 146.845H41.6994L45.1194 128.615C45.1712 128.339 45.1614 128.055 45.0909 127.783C45.0203 127.511 44.8907 127.258 44.7112 127.041C44.5317 126.825 44.3067 126.651 44.0523 126.532C43.7979 126.413 43.5203 126.351 43.2392 126.351Z" fill="#FF655B"/>
<path d="M261.066 96.9497L260.444 121.788L259.674 152.588H233.464L232.561 116.502L232.072 96.9497H261.066Z" fill="#E6E6E6"/>
<path d="M248.309 83.7356H244.597V132.883H248.309V83.7356Z" fill="#FF655B"/>
<path d="M259.21 115.665L258.508 150.968H234.618L233.795 109.607C235.948 109.002 238.202 108.848 240.416 109.152C242.631 109.457 244.76 110.214 246.669 111.376C250.66 113.736 255.145 115.006 259.21 115.665Z" fill="#3F3D56"/>
<path d="M240.532 119.639H237.127V123.043H240.532V119.639Z" fill="#E6E6E6"/>
<path d="M242.852 112.684H239.446V116.088H242.852V112.684Z" fill="#E6E6E6"/>
<path d="M250.164 117.499L247.429 115.471L245.4 118.205L248.136 120.233L250.164 117.499Z" fill="#E6E6E6"/>
<path d="M256.317 123.53L253.582 121.502L251.553 124.236L254.288 126.263L256.317 123.53Z" fill="#E6E6E6"/>
<path d="M245.879 127.007L243.144 124.979L241.115 127.713L243.851 129.741L245.879 127.007Z" fill="#E6E6E6"/>
<path d="M253.875 111.323C254.26 111.323 254.571 111.011 254.571 110.627C254.571 110.243 254.26 109.932 253.875 109.932C253.491 109.932 253.18 110.243 253.18 110.627C253.18 111.011 253.491 111.323 253.875 111.323Z" fill="#3F3D56"/>
<path d="M239.726 106.686C240.111 106.686 240.422 106.375 240.422 105.991C240.422 105.607 240.111 105.295 239.726 105.295C239.342 105.295 239.031 105.607 239.031 105.991C239.031 106.375 239.342 106.686 239.726 106.686Z" fill="#3F3D56"/>
<path d="M251.556 101.818C251.94 101.818 252.252 101.507 252.252 101.123C252.252 100.738 251.94 100.427 251.556 100.427C251.172 100.427 250.86 100.738 250.86 101.123C250.86 101.507 251.172 101.818 251.556 101.818Z" fill="#3F3D56"/>
<path d="M140.16 152.376C182.26 152.376 216.389 118.265 216.389 76.1879C216.389 34.1105 182.26 0 140.16 0C98.0603 0 63.9315 34.1105 63.9315 76.1879C63.9315 118.265 98.0603 152.376 140.16 152.376Z" fill="#FF655B"/>
<path opacity="0.2" d="M140.16 131.798C127.288 131.798 114.814 127.337 104.863 119.175C94.9127 111.013 88.1016 99.6551 85.5904 87.0368C83.0791 74.4185 85.0232 61.3203 91.0913 49.9739C97.1593 38.6276 106.976 29.7351 118.869 24.8117C130.761 19.8884 143.994 19.2387 156.312 22.9734C168.63 26.708 179.271 34.5961 186.423 45.2934C193.575 55.9907 196.794 68.8354 195.532 81.6389C194.27 94.4425 188.606 106.413 179.503 115.51C174.349 120.69 168.217 124.797 161.464 127.593C154.711 130.388 147.47 131.818 140.16 131.798ZM140.16 24.0077C111.373 24.0077 87.9521 47.4156 87.9521 76.1878C87.9521 104.96 111.373 128.368 140.16 128.368C168.948 128.368 192.368 104.96 192.368 76.1878C192.368 47.4156 168.948 24.0077 140.16 24.0077Z" fill="black"/>
<path d="M140.16 130.083C169.942 130.083 194.084 105.953 194.084 76.1878C194.084 46.4225 169.942 22.2929 140.16 22.2929C110.379 22.2929 86.2363 46.4225 86.2363 76.1878C86.2363 105.953 110.379 130.083 140.16 130.083Z" fill="#3F3D56"/>
<path d="M100.058 54.6375C99.6492 53.837 99.4022 52.9637 99.3311 52.0677C99.26 51.1717 99.3664 50.2704 99.644 49.4155C99.9216 48.5606 100.365 47.7687 100.949 47.0852C101.533 46.4017 102.246 45.84 103.048 45.4321C103.849 45.0242 104.723 44.7782 105.62 44.7081C106.516 44.638 107.418 44.7452 108.273 45.0236C109.128 45.302 109.92 45.7461 110.603 46.3306C111.286 46.915 111.848 47.6283 112.255 48.4297L127.49 78.3302C127.899 79.1308 128.146 80.004 128.217 80.9001C128.288 81.7961 128.182 82.6973 127.904 83.5523C127.626 84.4072 127.183 85.199 126.599 85.8825C126.015 86.5661 125.302 87.1278 124.5 87.5357C123.699 87.9436 122.825 88.1896 121.928 88.2597C121.032 88.3298 120.13 88.2225 119.275 87.9442C118.42 87.6658 117.628 87.2216 116.945 86.6372C116.262 86.0528 115.7 85.3394 115.293 84.5381L100.058 54.6375Z" fill="#FF6584"/>
<path opacity="0.2" d="M101.757 57.9726L101.054 56.5925C104.564 53.8673 108.684 51.8631 113.251 50.3847L113.954 51.7647C109.012 52.7935 104.806 54.6972 101.757 57.9726Z" fill="black"/>
<path opacity="0.2" d="M105.039 64.4127L104.336 63.0326C107.845 60.3075 111.966 58.3032 116.532 56.8248L117.236 58.2049C112.293 59.2336 108.088 61.1374 105.039 64.4127Z" fill="black"/>
<path opacity="0.2" d="M108.32 70.8528L107.617 69.4728C111.126 66.7476 115.247 64.7434 119.814 63.265L120.517 64.645C115.574 65.6737 111.369 67.5775 108.32 70.8528Z" fill="black"/>
<path opacity="0.2" d="M111.602 77.2929L110.898 75.9129C114.408 73.1877 118.528 71.1835 123.095 69.7051L123.798 71.0851C118.856 72.1138 114.651 74.0176 111.602 77.2929Z" fill="black"/>
<path opacity="0.2" d="M114.883 83.733L114.18 82.353C117.689 79.6278 121.81 77.6236 126.376 76.1452L127.08 77.5252C122.137 78.5539 117.932 80.4577 114.883 83.733Z" fill="black"/>
<path d="M88.6285 65.8312C88.2197 65.0307 87.9727 64.1575 87.9017 63.2615C87.8307 62.3655 87.9371 61.4643 88.2148 60.6095C88.4925 59.7546 88.936 58.9628 89.52 58.2794C90.104 57.5959 90.8171 57.0342 91.6184 56.6264C92.4197 56.2185 93.2936 55.9725 94.1902 55.9024C95.0867 55.8323 95.9882 55.9395 96.8433 56.2178C97.6984 56.4961 98.4901 56.9402 99.1734 57.5245C99.8567 58.1089 100.418 58.8221 100.825 59.6234L116.06 89.5239C116.882 91.1402 117.027 93.0163 116.466 94.7399C115.904 96.4636 114.68 97.8939 113.064 98.7165C111.448 99.5392 109.571 99.6869 107.846 99.1272C106.121 98.5675 104.688 97.3463 103.863 95.7317L88.6285 65.8312Z" fill="#FF6584"/>
<path opacity="0.2" d="M90.3278 69.1662L89.6246 67.7862C93.1338 65.061 97.2546 63.0568 101.821 61.5784L102.525 62.9584C97.5819 63.9871 93.3768 65.8909 90.3278 69.1662Z" fill="black"/>
<path opacity="0.2" d="M93.6092 75.6063L92.906 74.2263C96.4152 71.5011 100.536 69.4969 105.103 68.0185L105.806 69.3985C100.863 70.4273 96.6581 72.331 93.6092 75.6063Z" fill="black"/>
<path opacity="0.2" d="M96.8905 82.0465L96.1874 80.6665C99.6966 77.9413 103.817 75.9371 108.384 74.4586L109.087 75.8387C104.145 76.8674 99.9395 78.7712 96.8905 82.0465Z" fill="black"/>
<path opacity="0.2" d="M100.172 88.4866L99.4688 87.1066C102.978 84.3814 107.099 82.3772 111.666 80.8987L112.369 82.2788C107.426 83.3075 103.221 85.2113 100.172 88.4866Z" fill="black"/>
<path opacity="0.2" d="M103.453 94.9267L102.75 93.5467C106.259 90.8215 110.38 88.8173 114.947 87.3389L115.65 88.7189C110.707 89.7476 106.502 91.6514 103.453 94.9267Z" fill="black"/>
<path d="M176.191 77.9027L176.239 77.9027C177.88 77.9165 179.487 77.4356 180.851 76.5229C182.214 75.6101 183.27 74.3078 183.882 72.786C185.14 69.6072 185.775 66.2161 185.75 62.7977C185.664 48.3291 173.887 36.4593 159.412 36.2592C153.247 36.173 147.242 38.22 142.415 42.0532C137.588 45.8865 134.236 51.2701 132.926 57.2916C131.617 63.313 132.431 69.6017 135.231 75.0916C138.031 80.5816 142.644 84.935 148.288 87.4138C149.78 88.0739 151.436 88.268 153.04 87.9707C154.644 87.6735 156.121 86.8987 157.277 85.748C159.755 83.2575 162.703 81.2821 165.949 79.9356C169.196 78.5891 172.676 77.8982 176.191 77.9027Z" fill="#E6E6E6"/>
<path d="M162.465 69.8185C167.338 69.8185 171.289 65.87 171.289 60.9993C171.289 56.1286 167.338 52.1801 162.465 52.1801C157.592 52.1801 153.641 56.1286 153.641 60.9993C153.641 65.87 157.592 69.8185 162.465 69.8185Z" fill="#F9A825"/>
<path d="M143.288 60.0076C143.862 60.0076 144.327 59.5424 144.327 58.9686C144.327 58.3948 143.862 57.9297 143.288 57.9297C142.713 57.9297 142.248 58.3948 142.248 58.9686C142.248 59.5424 142.713 60.0076 143.288 60.0076Z" fill="#3F3D56"/>
<path d="M108.972 60.9875C109.546 60.9875 110.012 60.5223 110.012 59.9485C110.012 59.3748 109.546 58.9096 108.972 58.9096C108.398 58.9096 107.933 59.3748 107.933 59.9485C107.933 60.5223 108.398 60.9875 108.972 60.9875Z" fill="#3F3D56"/>
<path d="M148.828 49.2404C149.402 49.2404 149.867 48.7752 149.867 48.2014C149.867 47.6277 149.402 47.1625 148.828 47.1625C148.253 47.1625 147.788 47.6277 147.788 48.2014C147.788 48.7752 148.253 49.2404 148.828 49.2404Z" fill="#3F3D56"/>
<path d="M148.798 79.1866C149.372 79.1866 149.838 78.7215 149.838 78.1477C149.838 77.5739 149.372 77.1087 148.798 77.1087C148.224 77.1087 147.759 77.5739 147.759 78.1477C147.759 78.7215 148.224 79.1866 148.798 79.1866Z" fill="#3F3D56"/>
<path d="M169.387 47.0946C169.961 47.0946 170.427 46.6295 170.427 46.0557C170.427 45.4819 169.961 45.0167 169.387 45.0167C168.813 45.0167 168.348 45.4819 168.348 46.0557C168.348 46.6295 168.813 47.0946 169.387 47.0946Z" fill="#3F3D56"/>
<path d="M102.227 75.512C102.801 75.512 103.267 75.0468 103.267 74.473C103.267 73.8992 102.801 73.4341 102.227 73.4341C101.653 73.4341 101.188 73.8992 101.188 74.473C101.188 75.0468 101.653 75.512 102.227 75.512Z" fill="#3F3D56"/>
<path d="M109.826 90.4556C110.4 90.4556 110.865 89.9904 110.865 89.4166C110.865 88.8428 110.4 88.3777 109.826 88.3777C109.252 88.3777 108.786 88.8428 108.786 89.4166C108.786 89.9904 109.252 90.4556 109.826 90.4556Z" fill="#3F3D56"/>
<path d="M157.563 95.2961C159.729 95.2961 161.485 93.5412 161.485 91.3764C161.485 89.2117 159.729 87.4568 157.563 87.4568C155.397 87.4568 153.641 89.2117 153.641 91.3764C153.641 93.5412 155.397 95.2961 157.563 95.2961Z" fill="#FF6584"/>
<path opacity="0.2" d="M160.504 91.6214C160.504 92.4011 160.194 93.1488 159.643 93.7001C159.091 94.2514 158.343 94.5611 157.563 94.5611C156.783 94.5611 156.035 94.2514 155.483 93.7001C154.932 93.1488 154.622 92.4011 154.622 91.6214" fill="black"/>
<path opacity="0.2" d="M154.622 91.1314C154.622 90.3518 154.932 89.604 155.483 89.0527C156.035 88.5014 156.783 88.1917 157.563 88.1917C158.343 88.1917 159.091 88.5014 159.643 89.0527C160.194 89.604 160.504 90.3518 160.504 91.1314" fill="black"/>
<path d="M156.092 90.3965C156.228 90.3965 156.337 90.232 156.337 90.0291C156.337 89.8261 156.228 89.6616 156.092 89.6616C155.957 89.6616 155.847 89.8261 155.847 90.0291C155.847 90.232 155.957 90.3965 156.092 90.3965Z" fill="#FF6584"/>
<path d="M157.563 89.9066C157.698 89.9066 157.808 89.742 157.808 89.5391C157.808 89.3362 157.698 89.1716 157.563 89.1716C157.428 89.1716 157.318 89.3362 157.318 89.5391C157.318 89.742 157.428 89.9066 157.563 89.9066Z" fill="#FF6584"/>
<path d="M157.563 93.0913C157.698 93.0913 157.808 92.9267 157.808 92.7238C157.808 92.5209 157.698 92.3563 157.563 92.3563C157.428 92.3563 157.318 92.5209 157.318 92.7238C157.318 92.9267 157.428 93.0913 157.563 93.0913Z" fill="#FF6584"/>
<path d="M159.034 91.1314C159.169 91.1314 159.279 90.9669 159.279 90.764C159.279 90.561 159.169 90.3965 159.034 90.3965C158.898 90.3965 158.789 90.561 158.789 90.764C158.789 90.9669 158.898 91.1314 159.034 91.1314Z" fill="#FF6584"/>
<path d="M158.788 93.8262C158.924 93.8262 159.034 93.6617 159.034 93.4588C159.034 93.2558 158.924 93.0913 158.788 93.0913C158.653 93.0913 158.543 93.2558 158.543 93.4588C158.543 93.6617 158.653 93.8262 158.788 93.8262Z" fill="#FF6584"/>
<path d="M155.847 92.6013C155.983 92.6013 156.092 92.4368 156.092 92.2339C156.092 92.0309 155.983 91.8664 155.847 91.8664C155.712 91.8664 155.602 92.0309 155.602 92.2339C155.602 92.4368 155.712 92.6013 155.847 92.6013Z" fill="#FF6584"/>
<path d="M165.406 84.7621C167.572 84.7621 169.328 83.0072 169.328 80.8424C169.328 78.6777 167.572 76.9228 165.406 76.9228C163.24 76.9228 161.485 78.6777 161.485 80.8424C161.485 83.0072 163.24 84.7621 165.406 84.7621Z" fill="#FF6584"/>
<path opacity="0.2" d="M168.348 81.0874C168.348 81.8671 168.038 82.6148 167.486 83.1661C166.935 83.7174 166.186 84.0271 165.406 84.0271C164.626 84.0271 163.878 83.7174 163.327 83.1661C162.775 82.6148 162.465 81.8671 162.465 81.0874" fill="black"/>
<path opacity="0.2" d="M162.465 80.5974C162.465 79.8178 162.775 79.07 163.327 78.5187C163.878 77.9674 164.626 77.6577 165.406 77.6577C166.186 77.6577 166.935 77.9674 167.486 78.5187C168.038 79.07 168.348 79.8178 168.348 80.5974" fill="black"/>
<path d="M163.936 79.8625C164.071 79.8625 164.181 79.698 164.181 79.495C164.181 79.2921 164.071 79.1276 163.936 79.1276C163.8 79.1276 163.691 79.2921 163.691 79.495C163.691 79.698 163.8 79.8625 163.936 79.8625Z" fill="#FF6584"/>
<path d="M165.406 79.3726C165.542 79.3726 165.652 79.208 165.652 79.0051C165.652 78.8022 165.542 78.6376 165.406 78.6376C165.271 78.6376 165.161 78.8022 165.161 79.0051C165.161 79.208 165.271 79.3726 165.406 79.3726Z" fill="#FF6584"/>
<path d="M165.406 82.5573C165.542 82.5573 165.652 82.3927 165.652 82.1898C165.652 81.9868 165.542 81.8223 165.406 81.8223C165.271 81.8223 165.161 81.9868 165.161 82.1898C165.161 82.3927 165.271 82.5573 165.406 82.5573Z" fill="#FF6584"/>
<path d="M166.877 80.5974C167.012 80.5974 167.122 80.4329 167.122 80.23C167.122 80.027 167.012 79.8625 166.877 79.8625C166.742 79.8625 166.632 80.027 166.632 80.23C166.632 80.4329 166.742 80.5974 166.877 80.5974Z" fill="#FF6584"/>
<path d="M166.632 83.2922C166.767 83.2922 166.877 83.1277 166.877 82.9247C166.877 82.7218 166.767 82.5573 166.632 82.5573C166.497 82.5573 166.387 82.7218 166.387 82.9247C166.387 83.1277 166.497 83.2922 166.632 83.2922Z" fill="#FF6584"/>
<path d="M163.691 82.0673C163.826 82.0673 163.936 81.9028 163.936 81.6998C163.936 81.4969 163.826 81.3324 163.691 81.3324C163.555 81.3324 163.446 81.4969 163.446 81.6998C163.446 81.9028 163.555 82.0673 163.691 82.0673Z" fill="#FF6584"/>
<path d="M173.25 90.1515C175.416 90.1515 177.172 88.3966 177.172 86.2319C177.172 84.0671 175.416 82.3123 173.25 82.3123C171.084 82.3123 169.328 84.0671 169.328 86.2319C169.328 88.3966 171.084 90.1515 173.25 90.1515Z" fill="#FF655B"/>
<path opacity="0.2" d="M176.191 86.4769C176.191 87.2566 175.881 88.0043 175.33 88.5556C174.778 89.1069 174.03 89.4166 173.25 89.4166C172.47 89.4166 171.722 89.1069 171.17 88.5556C170.618 88.0043 170.309 87.2566 170.309 86.4769" fill="black"/>
<path opacity="0.2" d="M170.309 85.9869C170.309 85.2073 170.618 84.4595 171.17 83.9082C171.722 83.3569 172.47 83.0472 173.25 83.0472C174.03 83.0472 174.778 83.3569 175.33 83.9082C175.881 84.4595 176.191 85.2073 176.191 85.9869" fill="black"/>
<path d="M171.779 85.252C171.915 85.252 172.024 85.0875 172.024 84.8846C172.024 84.6816 171.915 84.5171 171.779 84.5171C171.644 84.5171 171.534 84.6816 171.534 84.8846C171.534 85.0875 171.644 85.252 171.779 85.252Z" fill="#FF655B"/>
<path d="M173.25 84.7621C173.385 84.7621 173.495 84.5975 173.495 84.3946C173.495 84.1916 173.385 84.0271 173.25 84.0271C173.114 84.0271 173.005 84.1916 173.005 84.3946C173.005 84.5975 173.114 84.7621 173.25 84.7621Z" fill="#FF655B"/>
<path d="M173.25 87.9468C173.385 87.9468 173.495 87.7822 173.495 87.5793C173.495 87.3763 173.385 87.2118 173.25 87.2118C173.114 87.2118 173.005 87.3763 173.005 87.5793C173.005 87.7822 173.114 87.9468 173.25 87.9468Z" fill="#FF655B"/>
<path d="M174.721 85.9869C174.856 85.9869 174.966 85.8224 174.966 85.6195C174.966 85.4165 174.856 85.252 174.721 85.252C174.585 85.252 174.475 85.4165 174.475 85.6195C174.475 85.8224 174.585 85.9869 174.721 85.9869Z" fill="#FF655B"/>
<path d="M174.475 88.6817C174.611 88.6817 174.72 88.5172 174.72 88.3142C174.72 88.1113 174.611 87.9467 174.475 87.9467C174.34 87.9467 174.23 88.1113 174.23 88.3142C174.23 88.5172 174.34 88.6817 174.475 88.6817Z" fill="#FF655B"/>
<path d="M171.534 87.4568C171.67 87.4568 171.779 87.2923 171.779 87.0893C171.779 86.8864 171.67 86.7219 171.534 86.7219C171.399 86.7219 171.289 86.8864 171.289 87.0893C171.289 87.2923 171.399 87.4568 171.534 87.4568Z" fill="#FF655B"/>
<path d="M153.641 90.6415C155.807 90.6415 157.563 88.8866 157.563 86.7219C157.563 84.5571 155.807 82.8022 153.641 82.8022C151.475 82.8022 149.719 84.5571 149.719 86.7219C149.719 88.8866 151.475 90.6415 153.641 90.6415Z" fill="#FF655B"/>
<path opacity="0.2" d="M156.582 86.9668C156.582 87.7465 156.273 88.4942 155.721 89.0455C155.169 89.5968 154.421 89.9066 153.641 89.9066C152.861 89.9066 152.113 89.5968 151.561 89.0455C151.01 88.4942 150.7 87.7465 150.7 86.9668" fill="black"/>
<path opacity="0.2" d="M150.7 86.4769C150.7 85.6972 151.01 84.9495 151.561 84.3982C152.113 83.8469 152.861 83.5372 153.641 83.5372C154.421 83.5372 155.169 83.8469 155.721 84.3982C156.273 84.9495 156.582 85.6972 156.582 86.4769" fill="black"/>
<path d="M152.171 85.7419C152.306 85.7419 152.416 85.5774 152.416 85.3745C152.416 85.1715 152.306 85.007 152.171 85.007C152.035 85.007 151.925 85.1715 151.925 85.3745C151.925 85.5774 152.035 85.7419 152.171 85.7419Z" fill="#FF655B"/>
<path d="M153.641 85.252C153.777 85.252 153.886 85.0875 153.886 84.8846C153.886 84.6816 153.777 84.5171 153.641 84.5171C153.506 84.5171 153.396 84.6816 153.396 84.8846C153.396 85.0875 153.506 85.252 153.641 85.252Z" fill="#FF655B"/>
<path d="M153.641 88.4367C153.777 88.4367 153.886 88.2722 153.886 88.0692C153.886 87.8663 153.777 87.7018 153.641 87.7018C153.506 87.7018 153.396 87.8663 153.396 88.0692C153.396 88.2722 153.506 88.4367 153.641 88.4367Z" fill="#FF655B"/>
<path d="M155.112 86.4769C155.247 86.4769 155.357 86.3124 155.357 86.1094C155.357 85.9065 155.247 85.7419 155.112 85.7419C154.976 85.7419 154.867 85.9065 154.867 86.1094C154.867 86.3124 154.976 86.4769 155.112 86.4769Z" fill="#FF655B"/>
<path d="M154.867 89.1716C155.002 89.1716 155.112 89.0071 155.112 88.8042C155.112 88.6012 155.002 88.4367 154.867 88.4367C154.731 88.4367 154.622 88.6012 154.622 88.8042C154.622 89.0071 154.731 89.1716 154.867 89.1716Z" fill="#FF655B"/>
<path d="M151.926 87.9468C152.061 87.9468 152.171 87.7822 152.171 87.5793C152.171 87.3763 152.061 87.2118 151.926 87.2118C151.79 87.2118 151.68 87.3763 151.68 87.5793C151.68 87.7822 151.79 87.9468 151.926 87.9468Z" fill="#FF655B"/>
<path d="M162.465 92.3564C164.631 92.3564 166.387 90.6015 166.387 88.4367C166.387 86.272 164.631 84.5171 162.465 84.5171C160.299 84.5171 158.543 86.272 158.543 88.4367C158.543 90.6015 160.299 92.3564 162.465 92.3564Z" fill="#FF655B"/>
<path opacity="0.2" d="M165.406 88.6817C165.406 89.0678 165.33 89.45 165.183 89.8067C165.035 90.1633 164.818 90.4874 164.545 90.7604C164.272 91.0334 163.948 91.2499 163.591 91.3976C163.234 91.5454 162.851 91.6214 162.465 91.6214C162.079 91.6214 161.696 91.5454 161.34 91.3976C160.983 91.2499 160.658 91.0334 160.385 90.7604C160.112 90.4874 159.895 90.1633 159.748 89.8067C159.6 89.45 159.524 89.0678 159.524 88.6817" fill="black"/>
<path opacity="0.2" d="M159.524 88.1917C159.524 87.8057 159.6 87.4234 159.748 87.0668C159.895 86.7101 160.112 86.386 160.385 86.113C160.658 85.8401 160.983 85.6235 161.34 85.4758C161.696 85.3281 162.079 85.252 162.465 85.252C162.851 85.252 163.234 85.3281 163.591 85.4758C163.948 85.6235 164.272 85.8401 164.545 86.113C164.818 86.386 165.035 86.7101 165.183 87.0668C165.33 87.4234 165.406 87.8057 165.406 88.1917" fill="black"/>
<path d="M160.994 87.4568C161.13 87.4568 161.24 87.2923 161.24 87.0893C161.24 86.8864 161.13 86.7219 160.994 86.7219C160.859 86.7219 160.749 86.8864 160.749 87.0893C160.749 87.2923 160.859 87.4568 160.994 87.4568Z" fill="#FF655B"/>
<path d="M162.465 86.9668C162.6 86.9668 162.71 86.8023 162.71 86.5994C162.71 86.3964 162.6 86.2319 162.465 86.2319C162.33 86.2319 162.22 86.3964 162.22 86.5994C162.22 86.8023 162.33 86.9668 162.465 86.9668Z" fill="#FF655B"/>
<path d="M162.465 90.1516C162.6 90.1516 162.71 89.987 162.71 89.7841C162.71 89.5811 162.6 89.4166 162.465 89.4166C162.33 89.4166 162.22 89.5811 162.22 89.7841C162.22 89.987 162.33 90.1516 162.465 90.1516Z" fill="#FF655B"/>
<path d="M163.936 88.1917C164.071 88.1917 164.181 88.0272 164.181 87.8243C164.181 87.6213 164.071 87.4568 163.936 87.4568C163.8 87.4568 163.691 87.6213 163.691 87.8243C163.691 88.0272 163.8 88.1917 163.936 88.1917Z" fill="#FF655B"/>
<path d="M163.691 90.8865C163.826 90.8865 163.936 90.722 163.936 90.519C163.936 90.3161 163.826 90.1516 163.691 90.1516C163.555 90.1516 163.446 90.3161 163.446 90.519C163.446 90.722 163.555 90.8865 163.691 90.8865Z" fill="#FF655B"/>
<path d="M160.749 89.6616C160.885 89.6616 160.994 89.4971 160.994 89.2941C160.994 89.0912 160.885 88.9267 160.749 88.9267C160.614 88.9267 160.504 89.0912 160.504 89.2941C160.504 89.4971 160.614 89.6616 160.749 89.6616Z" fill="#FF655B"/>
<path d="M168.593 96.5209C170.759 96.5209 172.514 94.7661 172.514 92.6013C172.514 90.4365 170.759 88.6817 168.593 88.6817C166.427 88.6817 164.671 90.4365 164.671 92.6013C164.671 94.7661 166.427 96.5209 168.593 96.5209Z" fill="#FF6584"/>
<path opacity="0.2" d="M171.534 92.8463C171.534 93.6259 171.224 94.3737 170.673 94.925C170.121 95.4763 169.373 95.786 168.593 95.786C167.813 95.786 167.065 95.4763 166.513 94.925C165.961 94.3737 165.651 93.6259 165.651 92.8463" fill="black"/>
<path opacity="0.2" d="M165.651 92.3563C165.651 91.5767 165.961 90.829 166.513 90.2777C167.065 89.7263 167.813 89.4166 168.593 89.4166C169.373 89.4166 170.121 89.7263 170.673 90.2777C171.224 90.829 171.534 91.5767 171.534 92.3563" fill="black"/>
<path d="M167.122 91.6214C167.258 91.6214 167.367 91.4569 167.367 91.2539C167.367 91.051 167.258 90.8865 167.122 90.8865C166.987 90.8865 166.877 91.051 166.877 91.2539C166.877 91.4569 166.987 91.6214 167.122 91.6214Z" fill="#FF6584"/>
<path d="M168.593 91.1314C168.728 91.1314 168.838 90.9669 168.838 90.764C168.838 90.561 168.728 90.3965 168.593 90.3965C168.457 90.3965 168.348 90.561 168.348 90.764C168.348 90.9669 168.457 91.1314 168.593 91.1314Z" fill="#FF6584"/>
<path d="M168.593 94.3162C168.728 94.3162 168.838 94.1517 168.838 93.9487C168.838 93.7458 168.728 93.5812 168.593 93.5812C168.457 93.5812 168.348 93.7458 168.348 93.9487C168.348 94.1517 168.457 94.3162 168.593 94.3162Z" fill="#FF6584"/>
<path d="M170.063 92.3563C170.199 92.3563 170.309 92.1918 170.309 91.9889C170.309 91.7859 170.199 91.6214 170.063 91.6214C169.928 91.6214 169.818 91.7859 169.818 91.9889C169.818 92.1918 169.928 92.3563 170.063 92.3563Z" fill="#FF6584"/>
<path d="M169.818 95.0511C169.954 95.0511 170.063 94.8866 170.063 94.6836C170.063 94.4807 169.954 94.3162 169.818 94.3162C169.683 94.3162 169.573 94.4807 169.573 94.6836C169.573 94.8866 169.683 95.0511 169.818 95.0511Z" fill="#FF6584"/>
<path d="M166.877 93.8262C167.012 93.8262 167.122 93.6617 167.122 93.4588C167.122 93.2558 167.012 93.0913 166.877 93.0913C166.742 93.0913 166.632 93.2558 166.632 93.4588C166.632 93.6617 166.742 93.8262 166.877 93.8262Z" fill="#FF6584"/>
<path d="M118.159 78.6967C118.734 78.6967 119.199 78.2315 119.199 77.6577C119.199 77.0839 118.734 76.6188 118.159 76.6188C117.585 76.6188 117.12 77.0839 117.12 77.6577C117.12 78.2315 117.585 78.6967 118.159 78.6967Z" fill="#3F3D56"/>
<path d="M146.415 115.369L121.45 108.449L122.406 104.899L147.372 111.819L146.415 115.369Z" fill="#F9A825"/>
<path d="M142.755 114.182C134.206 115.818 125.424 115.818 116.875 114.182V110.502C125.443 111.921 134.187 111.921 142.755 110.502V114.182Z" fill="#F9A825"/>
<path d="M145.416 103.141C136.867 104.777 128.085 104.777 119.536 103.141V99.4607C128.104 100.88 136.848 100.88 145.416 99.4607V103.141Z" fill="#F9A825"/>
<path d="M154.365 107.557C145.816 109.193 137.034 109.193 128.485 107.557V103.877C137.053 105.296 145.797 105.296 154.365 103.877V107.557Z" fill="#F9A825"/>
<path d="M156.542 111.729C147.993 113.364 139.211 113.364 130.662 111.729V108.048C139.23 109.468 147.974 109.468 156.542 108.048V111.729Z" fill="#F9A825"/>
<path d="M164.131 117.179L138.598 121.466L138.006 117.834L163.539 113.548L164.131 117.179Z" fill="#F9A825"/>
<path d="M160.317 117.651C153.238 122.751 145.26 126.47 136.801 128.613L135.286 125.269C143.671 122.922 151.615 119.219 158.802 114.307L160.317 117.651Z" fill="#F9A825"/>
<path d="M158.19 106.491C151.111 111.591 143.133 115.31 134.674 117.453L133.159 114.109C141.544 111.763 149.488 108.06 156.675 103.147L158.19 106.491Z" fill="#F9A825"/>
<path d="M168.14 106.714C161.061 111.814 153.082 115.533 144.624 117.676L143.109 114.332C151.494 111.985 159.437 108.282 166.625 103.369L168.14 106.714Z" fill="#F9A825"/>
<path d="M171.835 109.582C164.756 114.682 156.777 118.401 148.319 120.544L146.804 117.2C155.188 114.853 163.132 111.15 170.32 106.237L171.835 109.582Z" fill="#F9A825"/>
<path d="M140.896 102.4H139.67V103.625H140.896V102.4Z" fill="#00BF71"/>
<path d="M144.572 123.713H143.347V124.938H144.572V123.713Z" fill="#00BF71"/>
<path d="M124.963 102.4H123.738V103.625H124.963V102.4Z" fill="#00BF71"/>
<path d="M153.396 117.589H152.171V118.814H153.396V117.589Z" fill="#00BF71"/>
<path d="M154.131 110.485H152.906V111.71H154.131V110.485Z" fill="#00BF71"/>
<path d="M133.915 107.131L132.495 106.168L131.944 106.979L133.364 107.942L133.915 107.131Z" fill="#00BF71"/>
<path d="M148.376 109.826L146.956 108.863L146.406 109.674L147.826 110.637L148.376 109.826Z" fill="#00BF71"/>
<path d="M130.728 114.48L129.308 113.517L128.758 114.328L130.178 115.291L130.728 114.48Z" fill="#00BF71"/>
<path d="M139.717 114.409L140.68 112.99L139.869 112.44L138.905 113.859L139.717 114.409Z" fill="#00BF71"/>
<path d="M146.334 116.124L147.298 114.705L146.486 114.155L145.523 115.574L146.334 116.124Z" fill="#00BF71"/>
<path d="M163.984 110.244L164.947 108.825L164.136 108.275L163.173 109.694L163.984 110.244Z" fill="#00BF71"/>
<path d="M280 152.294H0V153H280V152.294Z" fill="#3F3D56"/>
</svg>
